<svg xmlns="http://www.w3.org/2000/svg" xmlns:xlink="http://www.w3.org/1999/xlink" width="500" zoomAndPan="magnify" viewBox="0 0 375 374.999991" height="500" preserveAspectRatio="xMidYMid meet" version="1.0"><defs><clipPath id="a90f483a91"><path d="M 5 23.191406 L 370 23.191406 L 370 343.441406 L 5 343.441406 Z M 5 23.191406 " clip-rule="nonzero"/></clipPath></defs><path fill="#ffffff" d="M 352.84375 284.171875 L 214.378906 50.5 C 202.277344 30.078125 172.714844 30.078125 160.613281 50.5 L 22.144531 284.171875 C 9.804688 305.003906 24.816406 331.351562 49.023438 331.351562 L 325.960938 331.351562 C 350.175781 331.34375 365.1875 304.996094 352.84375 284.171875 Z M 352.84375 284.171875 " fill-opacity="1" fill-rule="nonzero"/><g clip-path="url(#a90f483a91)"><path fill="#0ea5e9" d="M 363.164062 278.050781 L 224.699219 44.386719 C 216.832031 31.113281 202.925781 23.191406 187.496094 23.191406 C 172.066406 23.191406 158.160156 31.113281 150.292969 44.386719 L 11.824219 278.050781 C 3.800781 291.585938 3.660156 307.832031 11.449219 321.5 C 19.238281 335.175781 33.285156 343.335938 49.023438 343.335938 L 325.960938 343.335938 C 341.699219 343.335938 355.742188 335.175781 363.527344 321.507812 C 371.324219 307.839844 371.191406 291.585938 363.164062 278.050781 Z M 342.691406 309.625 C 339.222656 315.710938 332.976562 319.339844 325.96875 319.339844 L 49.023438 319.339844 C 42.015625 319.339844 35.769531 315.703125 32.300781 309.625 C 28.832031 303.539062 28.898438 296.308594 32.464844 290.285156 L 170.933594 56.621094 C 174.4375 50.710938 180.628906 47.1875 187.496094 47.1875 C 194.363281 47.1875 200.554688 50.710938 204.058594 56.621094 L 342.527344 290.285156 C 346.097656 296.316406 346.160156 303.539062 342.691406 309.625 Z M 342.691406 309.625 " fill-opacity="1" fill-rule="nonzero"/></g><path fill="#0ea5e9" d="M 286.4375 234.265625 C 286.410156 234.214844 286.382812 234.160156 286.355469 234.109375 C 284.582031 230.910156 280.542969 229.804688 277.339844 231.578125 C 275.027344 232.851562 272.851562 234.46875 270.890625 236.433594 L 268.773438 238.550781 C 266.042969 241.28125 262.492188 243.179688 258.640625 243.523438 C 253.902344 243.9375 249.363281 242.285156 246.042969 238.964844 L 243.707031 236.628906 C 232.332031 225.265625 213.898438 225.273438 202.53125 236.644531 L 198.84375 240.328125 C 192.679688 246.492188 182.691406 246.492188 176.527344 240.328125 L 175.359375 239.160156 C 164.011719 227.808594 145.546875 227.808594 134.199219 239.160156 C 128.042969 245.308594 118.039062 245.308594 111.882812 239.160156 L 110.90625 238.191406 C 106.535156 233.820312 101.113281 231.132812 95.441406 230.136719 C 91.398438 229.417969 87.710938 232.632812 87.710938 236.742188 C 87.710938 239.9375 89.960938 242.730469 93.113281 243.277344 C 96.179688 243.8125 99.121094 245.253906 101.484375 247.625 L 102.730469 248.871094 C 114.164062 260.300781 132.1875 259.480469 143.890625 248.328125 C 150.0625 242.445312 159.871094 242.53125 165.933594 248.589844 L 167.101562 249.757812 C 178.46875 261.125 196.902344 261.132812 208.269531 249.765625 L 211.972656 246.0625 C 218.128906 239.902344 228.117188 239.902344 234.28125 246.054688 L 235.960938 247.730469 C 241.316406 253.078125 248.386719 256.574219 255.949219 256.898438 C 264.191406 257.242188 271.996094 254.195312 277.792969 248.398438 L 280.324219 245.867188 C 281.40625 244.78125 282.609375 243.894531 283.898438 243.207031 C 287.078125 241.46875 288.203125 237.4375 286.4375 234.265625 Z M 286.4375 234.265625 " fill-opacity="1" fill-rule="nonzero"/><path fill="#0ea5e9" d="M 320.972656 292.183594 L 306.488281 277.699219 C 295.125 266.339844 276.695312 266.34375 265.339844 277.722656 L 262.8125 280.253906 C 256.6875 286.394531 246.648438 286.402344 240.511719 280.261719 L 238.164062 277.910156 C 226.792969 266.542969 208.371094 266.542969 197 277.910156 L 193.292969 281.617188 C 187.128906 287.78125 177.148438 287.773438 170.992188 281.617188 L 169.824219 280.445312 C 158.476562 269.089844 140.007812 269.097656 128.660156 280.445312 C 125.339844 283.765625 120.804688 285.417969 116.0625 285.003906 C 112.214844 284.664062 108.667969 282.757812 105.9375 280.027344 L 105.367188 279.457031 C 94 268.097656 75.574219 268.105469 64.210938 279.464844 L 54.03125 289.652344 C 51.429688 292.253906 51.429688 296.476562 54.03125 299.078125 C 56.636719 301.683594 60.855469 301.683594 63.460938 299.078125 L 73.640625 288.894531 C 79.800781 282.730469 89.792969 282.730469 95.957031 288.894531 L 96.335938 289.273438 C 101.230469 294.167969 107.585938 297.546875 114.472656 298.234375 C 123.265625 299.121094 131.699219 296.132812 137.890625 290.0625 C 144.1875 283.878906 154.164062 283.617188 160.398438 289.863281 L 161.566406 291.03125 C 172.933594 302.402344 191.367188 302.40625 202.734375 291.039062 L 206.433594 287.339844 C 212.597656 281.175781 222.585938 281.175781 228.75 287.339844 L 231.105469 289.695312 C 242.425781 301.015625 260.941406 301.007812 272.253906 289.679688 L 274.773438 287.15625 C 280.9375 280.984375 290.925781 280.984375 297.097656 287.148438 L 311.558594 301.613281 C 314.164062 304.214844 318.382812 304.214844 320.988281 301.613281 C 323.570312 299.003906 323.578125 294.789062 320.972656 292.183594 Z M 320.972656 292.183594 " fill-opacity="1" fill-rule="nonzero"/><path fill="#0ea5e9" d="M 244.535156 188.839844 L 188.875 134.640625 C 187.679688 133.472656 185.757812 133.5 184.597656 134.699219 L 130.398438 190.359375 C 128.519531 192.292969 129.914062 195.53125 132.609375 195.496094 L 146.425781 195.3125 C 148.097656 195.289062 149.472656 196.628906 149.492188 198.300781 L 149.765625 218.894531 C 158.785156 217.324219 168.410156 220 175.359375 226.957031 L 176.527344 228.125 C 182.691406 234.285156 192.679688 234.285156 198.84375 228.125 L 202.53125 224.4375 C 208.925781 218.042969 217.550781 215.242188 225.90625 216.039062 L 225.65625 197.289062 C 225.632812 195.613281 226.96875 194.242188 228.636719 194.222656 L 242.460938 194.039062 C 245.164062 194.003906 246.472656 190.726562 244.535156 188.839844 Z M 244.535156 188.839844 " fill-opacity="1" fill-rule="nonzero"/></svg>