<svg xmlns="http://www.w3.org/2000/svg" xmlns:xlink="http://www.w3.org/1999/xlink" width="500" zoomAndPan="magnify" viewBox="0 0 375 374.999991" height="500" preserveAspectRatio="xMidYMid meet" version="1.0"><defs><clipPath id="19bb84b013"><path d="M 65.566406 14 L 318.316406 14 L 318.316406 371 L 65.566406 371 Z M 65.566406 14 " clip-rule="nonzero"/></clipPath><clipPath id="3bfed1fb7d"><path d="M 65.566406 152 L 318 152 L 318 371 L 65.566406 371 Z M 65.566406 152 " clip-rule="nonzero"/></clipPath></defs><rect x="-37.5" width="450" fill="#ffffff" y="-37.499999" height="449.999989" fill-opacity="1"/><rect x="-37.5" width="450" fill="#ffffff" y="-37.499999" height="449.999989" fill-opacity="1"/><path fill="#63add1" d="M 292.867188 221.300781 L 91.207031 221.300781 C 90.796875 223.070312 90.4375 224.851562 90.121094 226.640625 C 89.808594 228.429688 89.542969 230.226562 89.320312 232.03125 C 89.101562 233.832031 88.929688 235.640625 88.804688 237.453125 C 88.679688 239.265625 88.605469 241.082031 88.574219 242.898438 C 88.546875 244.714844 88.566406 246.53125 88.632812 248.347656 C 88.699219 250.164062 88.8125 251.976562 88.976562 253.785156 C 89.136719 255.59375 89.347656 257.398438 89.605469 259.199219 C 89.863281 260.996094 90.167969 262.785156 90.519531 264.570312 C 90.871094 266.351562 91.269531 268.125 91.714844 269.886719 C 92.160156 271.648438 92.648438 273.394531 93.1875 275.132812 C 93.722656 276.867188 94.304688 278.585938 94.933594 280.292969 C 95.5625 281.996094 96.234375 283.683594 96.949219 285.355469 C 97.667969 287.023438 98.425781 288.671875 99.230469 290.304688 C 100.035156 291.933594 100.878906 293.539062 101.769531 295.125 C 102.65625 296.710938 103.585938 298.269531 104.554688 299.804688 C 105.527344 301.34375 106.535156 302.851562 107.585938 304.335938 C 108.636719 305.816406 109.722656 307.273438 110.851562 308.699219 C 111.976562 310.125 113.140625 311.519531 114.339844 312.882812 C 115.539062 314.246094 116.777344 315.578125 118.046875 316.878906 C 119.316406 318.175781 120.617188 319.441406 121.957031 320.671875 C 123.292969 321.902344 124.660156 323.097656 126.058594 324.253906 C 127.460938 325.414062 128.890625 326.535156 130.347656 327.617188 C 131.808594 328.703125 133.292969 329.746094 134.808594 330.75 C 136.320312 331.753906 137.859375 332.71875 139.425781 333.644531 C 140.988281 334.566406 142.578125 335.449219 144.1875 336.289062 C 145.796875 337.128906 147.429688 337.925781 149.082031 338.679688 C 150.734375 339.433594 152.40625 340.144531 154.097656 340.8125 C 155.789062 341.476562 157.496094 342.097656 159.21875 342.675781 C 160.941406 343.25 162.679688 343.78125 164.429688 344.265625 C 166.179688 344.75 167.941406 345.191406 169.71875 345.582031 C 171.492188 345.972656 173.273438 346.316406 175.066406 346.617188 C 176.859375 346.914062 178.65625 347.164062 180.464844 347.367188 C 182.269531 347.570312 184.078125 347.726562 185.890625 347.835938 C 187.707031 347.941406 189.519531 348.003906 191.339844 348.015625 C 193.15625 348.027344 194.972656 347.992188 196.785156 347.910156 C 198.601562 347.824219 200.414062 347.695312 202.21875 347.515625 C 204.027344 347.335938 205.832031 347.109375 207.625 346.835938 C 209.421875 346.5625 211.210938 346.242188 212.988281 345.875 C 214.769531 345.503906 216.539062 345.089844 218.296875 344.628906 C 220.050781 344.167969 221.796875 343.660156 223.527344 343.109375 C 225.257812 342.554688 226.972656 341.957031 228.671875 341.316406 C 230.371094 340.671875 232.050781 339.984375 233.714844 339.253906 C 235.378906 338.519531 237.019531 337.746094 238.644531 336.925781 C 240.265625 336.109375 241.863281 335.246094 243.441406 334.34375 C 245.019531 333.441406 246.570312 332.5 248.097656 331.515625 C 249.625 330.53125 251.125 329.507812 252.597656 328.441406 C 254.070312 327.378906 255.515625 326.277344 256.929688 325.140625 C 258.347656 324 259.730469 322.824219 261.082031 321.609375 C 262.4375 320.398438 263.757812 319.152344 265.042969 317.871094 C 266.332031 316.585938 267.585938 315.273438 268.804688 313.925781 C 270.019531 312.578125 271.203125 311.199219 272.347656 309.789062 C 273.496094 308.378906 274.601562 306.9375 275.671875 305.46875 C 276.742188 304 277.773438 302.503906 278.761719 300.980469 C 279.753906 299.460938 280.703125 297.910156 281.613281 296.339844 C 282.523438 294.765625 283.390625 293.171875 284.214844 291.550781 C 285.042969 289.933594 285.824219 288.292969 286.5625 286.632812 C 287.300781 284.972656 287.996094 283.296875 288.648438 281.601562 C 289.296875 279.902344 289.902344 278.191406 290.464844 276.460938 C 291.023438 274.734375 291.539062 272.992188 292.007812 271.238281 C 292.476562 269.480469 292.898438 267.714844 293.273438 265.9375 C 293.652344 264.160156 293.980469 262.375 294.261719 260.578125 C 294.542969 258.785156 294.777344 256.984375 294.964844 255.175781 C 295.148438 253.367188 295.289062 251.558594 295.378906 249.742188 C 295.472656 247.929688 295.515625 246.113281 295.511719 244.296875 C 295.484375 236.53125 294.601562 228.867188 292.867188 221.300781 Z M 292.867188 221.300781 " fill-opacity="1" fill-rule="nonzero"/><g clip-path="url(#19bb84b013)"><path fill="#a4d6ef" d="M 318.503906 244.296875 C 318.503906 246.363281 318.453125 248.433594 318.351562 250.5 C 318.25 252.566406 318.097656 254.632812 317.894531 256.691406 C 317.691406 258.75 317.441406 260.804688 317.136719 262.851562 C 316.832031 264.898438 316.480469 266.9375 316.074219 268.96875 C 315.671875 270.996094 315.21875 273.015625 314.714844 275.023438 C 314.210938 277.03125 313.660156 279.027344 313.058594 281.007812 C 312.457031 282.988281 311.808594 284.953125 311.113281 286.902344 C 310.414062 288.851562 309.671875 290.78125 308.878906 292.691406 C 308.085938 294.605469 307.246094 296.496094 306.363281 298.367188 C 305.476562 300.238281 304.546875 302.085938 303.570312 303.914062 C 302.597656 305.738281 301.574219 307.539062 300.511719 309.3125 C 299.449219 311.089844 298.339844 312.835938 297.191406 314.558594 C 296.042969 316.277344 294.851562 317.96875 293.617188 319.632812 C 292.382812 321.296875 291.109375 322.925781 289.796875 324.527344 C 288.484375 326.125 287.132812 327.691406 285.742188 329.226562 C 284.351562 330.761719 282.925781 332.257812 281.464844 333.722656 C 280 335.1875 278.5 336.613281 276.96875 338.003906 C 275.433594 339.390625 273.867188 340.742188 272.265625 342.058594 C 270.667969 343.371094 269.035156 344.644531 267.375 345.875 C 265.710938 347.109375 264.019531 348.300781 262.296875 349.449219 C 260.578125 350.601562 258.828125 351.707031 257.054688 352.769531 C 255.277344 353.835938 253.476562 354.855469 251.652344 355.832031 C 249.828125 356.804688 247.980469 357.738281 246.109375 358.621094 C 244.238281 359.507812 242.347656 360.34375 240.433594 361.136719 C 238.519531 361.929688 236.589844 362.671875 234.640625 363.371094 C 232.695312 364.066406 230.730469 364.71875 228.75 365.316406 C 226.765625 365.917969 224.773438 366.472656 222.765625 366.972656 C 220.757812 367.476562 218.738281 367.929688 216.710938 368.332031 C 214.679688 368.738281 212.640625 369.089844 210.59375 369.394531 C 208.546875 369.699219 206.492188 369.953125 204.433594 370.15625 C 202.371094 370.359375 200.308594 370.511719 198.242188 370.613281 C 196.175781 370.714844 194.105469 370.765625 192.035156 370.765625 C 189.964844 370.765625 187.898438 370.714844 185.832031 370.613281 C 183.761719 370.511719 181.699219 370.359375 179.640625 370.15625 C 177.582031 369.953125 175.527344 369.699219 173.480469 369.394531 C 171.433594 369.089844 169.394531 368.738281 167.363281 368.332031 C 165.332031 367.929688 163.316406 367.476562 161.308594 366.972656 C 159.300781 366.472656 157.304688 365.917969 155.324219 365.316406 C 153.34375 364.71875 151.378906 364.066406 149.429688 363.371094 C 147.480469 362.671875 145.550781 361.929688 143.640625 361.136719 C 141.726562 360.34375 139.835938 359.507812 137.964844 358.621094 C 136.09375 357.738281 134.246094 356.804688 132.417969 355.832031 C 130.59375 354.855469 128.792969 353.835938 127.019531 352.769531 C 125.242188 351.707031 123.496094 350.601562 121.773438 349.449219 C 120.054688 348.300781 118.359375 347.109375 116.699219 345.875 C 115.035156 344.644531 113.40625 343.371094 111.804688 342.058594 C 110.207031 340.742188 108.636719 339.390625 107.105469 338.003906 C 105.570312 336.613281 104.074219 335.1875 102.609375 333.722656 C 101.144531 332.257812 99.71875 330.761719 98.328125 329.226562 C 96.9375 327.691406 95.585938 326.125 94.273438 324.527344 C 92.960938 322.925781 91.6875 321.296875 90.457031 319.632812 C 89.222656 317.96875 88.03125 316.277344 86.882812 314.558594 C 85.730469 312.835938 84.625 311.089844 83.558594 309.3125 C 82.496094 307.539062 81.476562 305.738281 80.5 303.914062 C 79.523438 302.085938 78.59375 300.238281 77.710938 298.367188 C 76.824219 296.496094 75.988281 294.605469 75.195312 292.691406 C 74.402344 290.78125 73.65625 288.851562 72.960938 286.902344 C 72.261719 284.953125 71.613281 282.988281 71.011719 281.007812 C 70.414062 279.027344 69.859375 277.03125 69.359375 275.023438 C 68.855469 273.015625 68.402344 270.996094 67.996094 268.96875 C 67.59375 266.9375 67.238281 264.898438 66.9375 262.851562 C 66.632812 260.804688 66.378906 258.75 66.175781 256.691406 C 65.972656 254.632812 65.820312 252.566406 65.71875 250.5 C 65.617188 248.433594 65.566406 246.363281 65.566406 244.296875 C 65.566406 184.855469 144.957031 54.765625 181.804688 18.492188 C 182.484375 17.832031 183.21875 17.246094 184.011719 16.730469 C 184.804688 16.214844 185.640625 15.78125 186.515625 15.425781 C 187.394531 15.070312 188.296875 14.804688 189.226562 14.621094 C 190.152344 14.441406 191.089844 14.351562 192.035156 14.351562 C 192.980469 14.351562 193.917969 14.441406 194.847656 14.621094 C 195.777344 14.804688 196.679688 15.070312 197.554688 15.425781 C 198.433594 15.78125 199.265625 16.214844 200.058594 16.730469 C 200.851562 17.246094 201.589844 17.832031 202.269531 18.492188 C 239.117188 54.765625 318.503906 184.855469 318.503906 244.296875 Z M 295.511719 244.296875 C 295.484375 236.53125 294.601562 228.867188 292.867188 221.300781 L 91.207031 221.300781 C 90.796875 223.070312 90.4375 224.851562 90.121094 226.640625 C 89.808594 228.429688 89.542969 230.226562 89.320312 232.03125 C 89.101562 233.832031 88.929688 235.640625 88.804688 237.453125 C 88.679688 239.265625 88.605469 241.082031 88.574219 242.898438 C 88.546875 244.714844 88.566406 246.53125 88.632812 248.347656 C 88.699219 250.164062 88.8125 251.976562 88.976562 253.785156 C 89.136719 255.59375 89.347656 257.398438 89.605469 259.199219 C 89.863281 260.996094 90.167969 262.785156 90.519531 264.570312 C 90.871094 266.351562 91.269531 268.125 91.714844 269.886719 C 92.160156 271.648438 92.648438 273.394531 93.1875 275.132812 C 93.722656 276.867188 94.304688 278.585938 94.933594 280.292969 C 95.5625 281.996094 96.234375 283.683594 96.949219 285.355469 C 97.667969 287.023438 98.425781 288.671875 99.230469 290.304688 C 100.035156 291.933594 100.878906 293.539062 101.769531 295.125 C 102.65625 296.710938 103.585938 298.269531 104.554688 299.804688 C 105.527344 301.34375 106.535156 302.851562 107.585938 304.335938 C 108.636719 305.816406 109.722656 307.273438 110.851562 308.699219 C 111.976562 310.125 113.140625 311.519531 114.339844 312.882812 C 115.539062 314.246094 116.777344 315.578125 118.046875 316.878906 C 119.316406 318.175781 120.617188 319.441406 121.957031 320.671875 C 123.292969 321.902344 124.660156 323.097656 126.058594 324.253906 C 127.460938 325.414062 128.890625 326.535156 130.347656 327.617188 C 131.808594 328.703125 133.292969 329.746094 134.808594 330.75 C 136.320312 331.753906 137.859375 332.71875 139.425781 333.644531 C 140.988281 334.566406 142.578125 335.449219 144.1875 336.289062 C 145.796875 337.128906 147.429688 337.925781 149.082031 338.679688 C 150.734375 339.433594 152.40625 340.144531 154.097656 340.8125 C 155.789062 341.476562 157.496094 342.097656 159.21875 342.675781 C 160.941406 343.25 162.679688 343.78125 164.429688 344.265625 C 166.179688 344.75 167.941406 345.191406 169.71875 345.582031 C 171.492188 345.972656 173.273438 346.316406 175.066406 346.617188 C 176.859375 346.914062 178.65625 347.164062 180.464844 347.367188 C 182.269531 347.570312 184.078125 347.726562 185.890625 347.835938 C 187.707031 347.941406 189.519531 348.003906 191.339844 348.015625 C 193.15625 348.027344 194.972656 347.992188 196.785156 347.910156 C 198.601562 347.824219 200.414062 347.695312 202.21875 347.515625 C 204.027344 347.335938 205.832031 347.109375 207.625 346.835938 C 209.421875 346.5625 211.210938 346.242188 212.988281 345.875 C 214.769531 345.503906 216.539062 345.089844 218.296875 344.628906 C 220.050781 344.167969 221.796875 343.660156 223.527344 343.109375 C 225.257812 342.554688 226.972656 341.957031 228.671875 341.316406 C 230.371094 340.671875 232.050781 339.984375 233.714844 339.253906 C 235.378906 338.519531 237.019531 337.746094 238.644531 336.925781 C 240.265625 336.109375 241.863281 335.246094 243.441406 334.34375 C 245.019531 333.441406 246.570312 332.5 248.097656 331.515625 C 249.625 330.53125 251.125 329.507812 252.597656 328.441406 C 254.070312 327.378906 255.515625 326.277344 256.929688 325.140625 C 258.347656 324 259.730469 322.824219 261.082031 321.609375 C 262.4375 320.398438 263.757812 319.152344 265.042969 317.871094 C 266.332031 316.585938 267.585938 315.273438 268.804688 313.925781 C 270.019531 312.578125 271.203125 311.199219 272.347656 309.789062 C 273.496094 308.378906 274.601562 306.9375 275.671875 305.46875 C 276.742188 304 277.773438 302.503906 278.761719 300.980469 C 279.753906 299.460938 280.703125 297.910156 281.613281 296.339844 C 282.523438 294.765625 283.390625 293.171875 284.214844 291.550781 C 285.042969 289.933594 285.824219 288.292969 286.5625 286.632812 C 287.300781 284.972656 287.996094 283.296875 288.648438 281.601562 C 289.296875 279.902344 289.902344 278.191406 290.464844 276.460938 C 291.023438 274.734375 291.539062 272.992188 292.007812 271.238281 C 292.476562 269.480469 292.898438 267.714844 293.273438 265.9375 C 293.652344 264.160156 293.980469 262.375 294.261719 260.578125 C 294.542969 258.785156 294.777344 256.984375 294.964844 255.175781 C 295.148438 253.367188 295.289062 251.558594 295.378906 249.742188 C 295.472656 247.929688 295.515625 246.113281 295.511719 244.296875 Z M 295.511719 244.296875 " fill-opacity="1" fill-rule="nonzero"/></g><path fill="#409ac7" d="M 93.363281 221.300781 L 91.207031 221.300781 C 90.863281 222.808594 90.558594 224.324219 90.285156 225.847656 C 90.011719 227.367188 89.773438 228.894531 89.566406 230.425781 C 89.363281 231.960938 89.191406 233.496094 89.054688 235.035156 C 88.921875 236.578125 88.820312 238.117188 88.753906 239.664062 C 88.6875 241.207031 88.652344 242.753906 88.65625 244.300781 C 88.660156 245.847656 88.695312 247.390625 88.769531 248.9375 C 88.839844 250.480469 88.945312 252.023438 89.085938 253.5625 C 89.226562 255.101562 89.402344 256.636719 89.613281 258.171875 C 89.824219 259.703125 90.066406 261.226562 90.34375 262.75 C 90.625 264.269531 90.933594 265.785156 91.28125 267.292969 C 91.628906 268.796875 92.007812 270.296875 92.421875 271.785156 C 92.832031 273.277344 93.28125 274.757812 93.757812 276.226562 C 94.238281 277.695312 94.75 279.15625 95.296875 280.601562 C 95.839844 282.046875 96.417969 283.480469 97.027344 284.902344 C 97.636719 286.324219 98.277344 287.730469 98.949219 289.125 C 99.621094 290.515625 100.324219 291.894531 101.058594 293.253906 C 101.792969 294.613281 102.558594 295.957031 103.351562 297.285156 C 104.144531 298.609375 104.96875 299.917969 105.824219 301.210938 C 106.675781 302.5 107.558594 303.769531 108.464844 305.019531 C 109.375 306.269531 110.3125 307.496094 111.277344 308.707031 C 112.242188 309.914062 113.234375 311.101562 114.253906 312.265625 C 115.269531 313.425781 116.316406 314.566406 117.382812 315.683594 C 118.453125 316.800781 119.546875 317.894531 120.664062 318.960938 C 121.785156 320.03125 122.925781 321.070312 124.089844 322.089844 C 125.253906 323.105469 126.441406 324.09375 127.652344 325.058594 C 128.859375 326.023438 130.089844 326.957031 131.339844 327.867188 C 132.59375 328.773438 133.863281 329.65625 135.15625 330.507812 C 136.445312 331.359375 137.753906 332.179688 139.082031 332.972656 C 140.410156 333.765625 141.753906 334.527344 143.117188 335.261719 C 144.476562 335.992188 145.855469 336.695312 147.246094 337.363281 C 148.640625 338.035156 150.046875 338.675781 151.46875 339.28125 C 152.890625 339.890625 154.328125 340.464844 155.773438 341.007812 C 157.222656 341.550781 158.679688 342.0625 160.152344 342.539062 C 161.621094 343.019531 163.101562 343.460938 164.59375 343.875 C 166.082031 344.285156 167.582031 344.664062 169.089844 345.007812 C 170.597656 345.351562 172.109375 345.664062 173.632812 345.9375 C 175.152344 346.214844 176.679688 346.457031 178.210938 346.664062 C 179.746094 346.875 181.28125 347.046875 182.820312 347.1875 C 184.359375 347.324219 185.902344 347.429688 187.449219 347.5 C 188.992188 347.570312 190.539062 347.605469 192.082031 347.605469 C 193.628906 347.605469 195.175781 347.574219 196.71875 347.503906 C 198.265625 347.433594 199.808594 347.332031 201.347656 347.195312 C 202.886719 347.058594 204.421875 346.882812 205.957031 346.679688 C 207.488281 346.472656 209.015625 346.230469 210.535156 345.957031 C 212.058594 345.679688 213.570312 345.371094 215.078125 345.027344 C 216.585938 344.6875 218.085938 344.308594 219.578125 343.898438 C 221.066406 343.488281 222.550781 343.046875 224.019531 342.570312 C 225.492188 342.09375 226.949219 341.582031 228.398438 341.042969 C 229.847656 340.5 231.28125 339.925781 232.703125 339.320312 C 234.125 338.710938 235.535156 338.074219 236.929688 337.40625 C 238.320312 336.734375 239.699219 336.035156 241.0625 335.304688 C 242.425781 334.574219 243.769531 333.8125 245.097656 333.019531 C 246.425781 332.230469 247.738281 331.410156 249.027344 330.558594 C 250.320312 329.707031 251.589844 328.828125 252.84375 327.921875 C 254.09375 327.015625 255.328125 326.082031 256.535156 325.117188 C 257.746094 324.15625 258.933594 323.167969 260.101562 322.152344 C 261.265625 321.136719 262.410156 320.09375 263.527344 319.027344 C 264.648438 317.960938 265.742188 316.867188 266.8125 315.753906 C 267.882812 314.636719 268.925781 313.496094 269.945312 312.335938 C 270.964844 311.171875 271.957031 309.988281 272.921875 308.78125 C 273.890625 307.574219 274.828125 306.34375 275.738281 305.09375 C 276.648438 303.84375 277.53125 302.578125 278.386719 301.289062 C 279.242188 300 280.066406 298.691406 280.859375 297.367188 C 281.65625 296.039062 282.421875 294.695312 283.15625 293.335938 C 281.089844 294.660156 278.984375 295.921875 276.839844 297.125 C 274.699219 298.324219 272.523438 299.460938 270.316406 300.535156 C 268.109375 301.609375 265.871094 302.621094 263.605469 303.5625 C 261.335938 304.507812 259.042969 305.386719 256.726562 306.195312 C 254.40625 307.003906 252.066406 307.746094 249.707031 308.421875 C 247.34375 309.097656 244.964844 309.699219 242.570312 310.234375 C 240.171875 310.769531 237.761719 311.238281 235.339844 311.632812 C 232.914062 312.027344 230.484375 312.351562 228.039062 312.605469 C 225.597656 312.855469 223.148438 313.039062 220.695312 313.148438 C 218.242188 313.257812 215.789062 313.296875 213.332031 313.265625 C 210.878906 313.234375 208.425781 313.128906 205.976562 312.953125 C 203.527344 312.777344 201.085938 312.53125 198.648438 312.214844 C 196.214844 311.898438 193.789062 311.507812 191.378906 311.050781 C 188.964844 310.589844 186.570312 310.0625 184.1875 309.464844 C 181.804688 308.863281 179.445312 308.199219 177.101562 307.460938 C 174.757812 306.726562 172.4375 305.921875 170.144531 305.050781 C 167.847656 304.179688 165.578125 303.242188 163.335938 302.238281 C 161.097656 301.234375 158.886719 300.167969 156.707031 299.035156 C 154.527344 297.902344 152.382812 296.707031 150.273438 295.449219 C 148.164062 294.191406 146.09375 292.875 144.0625 291.496094 C 142.027344 290.117188 140.039062 288.683594 138.089844 287.1875 C 136.140625 285.695312 134.238281 284.144531 132.378906 282.539062 C 130.519531 280.933594 128.710938 279.277344 126.945312 277.566406 C 125.183594 275.855469 123.472656 274.097656 121.816406 272.285156 C 120.15625 270.476562 118.550781 268.621094 117 266.714844 C 115.445312 264.8125 113.953125 262.863281 112.515625 260.875 C 111.078125 258.882812 109.699219 256.851562 108.378906 254.78125 C 107.058594 252.710938 105.800781 250.601562 104.605469 248.457031 C 103.40625 246.3125 102.273438 244.136719 101.203125 241.925781 C 100.136719 239.714844 99.128906 237.476562 98.191406 235.207031 C 97.253906 232.9375 96.378906 230.644531 95.574219 228.324219 C 94.769531 226.003906 94.03125 223.664062 93.363281 221.300781 Z M 93.363281 221.300781 " fill-opacity="1" fill-rule="nonzero"/><g clip-path="url(#3bfed1fb7d)"><path fill="#a4d6ef" d="M 283.15625 293.335938 C 282.425781 294.703125 281.664062 296.050781 280.871094 297.382812 C 280.078125 298.714844 279.257812 300.03125 278.40625 301.324219 C 277.554688 302.621094 276.675781 303.894531 275.769531 305.152344 C 274.859375 306.40625 273.921875 307.640625 272.960938 308.855469 C 271.996094 310.066406 271.003906 311.257812 269.988281 312.429688 C 268.96875 313.597656 267.925781 314.742188 266.859375 315.863281 C 265.789062 316.988281 264.695312 318.085938 263.578125 319.15625 C 262.460938 320.230469 261.316406 321.277344 260.152344 322.300781 C 258.988281 323.320312 257.796875 324.316406 256.589844 325.285156 C 255.378906 326.253906 254.148438 327.191406 252.894531 328.105469 C 251.644531 329.019531 250.371094 329.902344 249.078125 330.757812 C 247.785156 331.613281 246.476562 332.441406 245.144531 333.238281 C 243.816406 334.035156 242.46875 334.800781 241.105469 335.535156 C 239.742188 336.273438 238.363281 336.976562 236.96875 337.652344 C 235.574219 338.324219 234.164062 338.96875 232.738281 339.578125 C 231.3125 340.191406 229.875 340.769531 228.425781 341.3125 C 226.976562 341.859375 225.515625 342.375 224.039062 342.855469 C 222.566406 343.335938 221.085938 343.78125 219.589844 344.195312 C 218.097656 344.609375 216.59375 344.988281 215.085938 345.335938 C 213.574219 345.683594 212.054688 345.992188 210.53125 346.273438 C 209.007812 346.550781 207.476562 346.792969 205.941406 347.003906 C 204.40625 347.210938 202.867188 347.386719 201.324219 347.527344 C 199.78125 347.667969 198.234375 347.773438 196.6875 347.84375 C 195.136719 347.914062 193.589844 347.949219 192.039062 347.949219 C 190.488281 347.949219 188.941406 347.917969 187.390625 347.847656 C 185.84375 347.777344 184.296875 347.675781 182.753906 347.539062 C 181.210938 347.398438 179.671875 347.226562 178.136719 347.019531 C 176.597656 346.8125 175.070312 346.570312 173.542969 346.292969 C 172.019531 346.015625 170.5 345.707031 168.992188 345.363281 C 167.480469 345.015625 165.976562 344.640625 164.484375 344.226562 C 162.988281 343.816406 161.503906 343.371094 160.03125 342.890625 C 158.558594 342.410156 157.09375 341.902344 155.644531 341.355469 C 154.191406 340.8125 152.753906 340.234375 151.328125 339.625 C 149.90625 339.015625 148.496094 338.375 147.097656 337.703125 C 145.703125 337.03125 144.320312 336.328125 142.957031 335.59375 C 141.59375 334.855469 140.246094 334.09375 138.914062 333.296875 C 137.585938 332.503906 136.273438 331.675781 134.980469 330.824219 C 133.6875 329.96875 132.414062 329.085938 131.160156 328.175781 C 129.90625 327.261719 128.675781 326.324219 127.464844 325.359375 C 126.253906 324.390625 125.0625 323.398438 123.898438 322.378906 C 122.730469 321.355469 121.585938 320.3125 120.46875 319.238281 C 119.347656 318.167969 118.253906 317.070312 117.183594 315.949219 C 116.113281 314.828125 115.070312 313.683594 114.050781 312.515625 C 113.03125 311.351562 112.039062 310.160156 111.074219 308.945312 C 110.109375 307.734375 109.171875 306.5 108.261719 305.246094 C 107.351562 303.992188 106.46875 302.71875 105.617188 301.421875 C 104.765625 300.128906 103.941406 298.816406 103.148438 297.484375 C 102.355469 296.15625 101.589844 294.804688 100.859375 293.441406 C 100.125 292.074219 99.425781 290.695312 98.753906 289.296875 C 98.082031 287.898438 97.441406 286.488281 96.835938 285.0625 C 96.226562 283.636719 95.652344 282.199219 95.109375 280.746094 C 94.566406 279.292969 94.058594 277.832031 93.582031 276.355469 C 93.105469 274.882812 92.660156 273.398438 92.25 271.902344 C 91.839844 270.410156 91.464844 268.90625 91.121094 267.394531 C 90.777344 265.882812 90.46875 264.363281 90.195312 262.839844 C 89.921875 261.316406 89.683594 259.785156 89.476562 258.246094 C 89.269531 256.710938 89.101562 255.171875 88.964844 253.628906 C 88.828125 252.085938 88.726562 250.539062 88.660156 248.988281 C 88.59375 247.441406 88.558594 245.894531 88.5625 244.34375 C 88.566406 242.792969 88.605469 241.246094 88.675781 239.695312 C 88.75 238.148438 88.855469 236.601562 88.996094 235.058594 C 89.140625 233.515625 89.316406 231.976562 89.527344 230.441406 C 89.738281 228.90625 89.984375 227.375 90.265625 225.851562 C 90.542969 224.328125 90.859375 222.8125 91.207031 221.300781 L 93.363281 221.300781 C 90.164062 210.027344 88.5625 198.527344 88.5625 186.808594 C 88.960938 175.074219 90.941406 163.613281 94.503906 152.425781 C 77.640625 187.285156 65.566406 221.152344 65.566406 244.296875 C 65.570312 246.273438 65.621094 248.253906 65.71875 250.230469 C 65.8125 252.207031 65.957031 254.183594 66.144531 256.152344 C 66.335938 258.125 66.570312 260.089844 66.851562 262.046875 C 67.132812 264.007812 67.460938 265.960938 67.832031 267.902344 C 68.207031 269.847656 68.625 271.78125 69.085938 273.707031 C 69.550781 275.632812 70.058594 277.542969 70.613281 279.445312 C 71.167969 281.34375 71.765625 283.230469 72.40625 285.105469 C 73.050781 286.976562 73.734375 288.832031 74.464844 290.675781 C 75.195312 292.515625 75.96875 294.335938 76.78125 296.140625 C 77.597656 297.945312 78.453125 299.730469 79.351562 301.492188 C 80.25 303.257812 81.191406 305 82.171875 306.71875 C 83.152344 308.4375 84.171875 310.132812 85.234375 311.804688 C 86.292969 313.476562 87.394531 315.125 88.53125 316.742188 C 89.667969 318.363281 90.84375 319.957031 92.054688 321.523438 C 93.265625 323.085938 94.515625 324.621094 95.800781 326.128906 C 97.085938 327.636719 98.402344 329.109375 99.757812 330.554688 C 101.109375 332 102.496094 333.410156 103.917969 334.789062 C 105.339844 336.171875 106.789062 337.515625 108.273438 338.828125 C 109.757812 340.136719 111.269531 341.414062 112.8125 342.652344 C 114.355469 343.894531 115.925781 345.097656 117.527344 346.261719 C 119.125 347.429688 120.753906 348.558594 122.40625 349.648438 C 124.058594 350.738281 125.734375 351.789062 127.4375 352.800781 C 129.136719 353.8125 130.863281 354.78125 132.609375 355.710938 C 134.359375 356.640625 136.125 357.53125 137.914062 358.378906 C 139.703125 359.226562 141.511719 360.03125 143.339844 360.792969 C 145.167969 361.554688 147.011719 362.273438 148.871094 362.949219 C 150.734375 363.625 152.609375 364.257812 154.5 364.84375 C 156.390625 365.429688 158.292969 365.972656 160.207031 366.472656 C 162.125 366.96875 164.050781 367.421875 165.988281 367.832031 C 167.925781 368.238281 169.871094 368.601562 171.824219 368.917969 C 173.78125 369.234375 175.742188 369.503906 177.707031 369.726562 C 179.675781 369.953125 181.644531 370.128906 183.621094 370.261719 C 185.597656 370.394531 187.574219 370.480469 189.550781 370.519531 C 191.53125 370.558594 193.511719 370.550781 195.488281 370.496094 C 197.46875 370.441406 199.445312 370.339844 201.417969 370.195312 C 203.394531 370.046875 205.363281 369.855469 207.328125 369.613281 C 209.292969 369.375 211.253906 369.089844 213.203125 368.757812 C 215.15625 368.425781 217.097656 368.050781 219.03125 367.628906 C 220.964844 367.207031 222.890625 366.738281 224.800781 366.222656 C 226.714844 365.710938 228.613281 365.152344 230.5 364.550781 C 232.382812 363.949219 234.253906 363.304688 236.109375 362.613281 C 237.964844 361.925781 239.804688 361.191406 241.625 360.414062 C 243.445312 359.636719 245.25 358.820312 247.03125 357.960938 C 248.8125 357.097656 250.574219 356.195312 252.316406 355.253906 C 254.054688 354.308594 255.773438 353.324219 257.46875 352.300781 C 259.160156 351.277344 260.832031 350.214844 262.476562 349.109375 C 264.121094 348.007812 265.738281 346.867188 267.328125 345.6875 C 268.917969 344.511719 270.480469 343.292969 272.015625 342.042969 C 273.546875 340.789062 275.050781 339.503906 276.523438 338.179688 C 277.996094 336.859375 279.4375 335.503906 280.847656 334.113281 C 282.257812 332.722656 283.632812 331.300781 284.976562 329.84375 C 286.316406 328.390625 287.625 326.902344 288.898438 325.386719 C 290.171875 323.871094 291.40625 322.328125 292.609375 320.753906 C 293.808594 319.179688 294.972656 317.578125 296.097656 315.945312 C 297.222656 314.320312 298.308594 312.664062 299.355469 310.984375 C 300.402344 309.304688 301.410156 307.601562 302.378906 305.875 C 303.34375 304.144531 304.269531 302.398438 305.15625 300.625 C 306.042969 298.855469 306.882812 297.066406 307.6875 295.253906 C 308.488281 293.445312 309.246094 291.617188 309.960938 289.769531 C 310.675781 287.925781 311.347656 286.0625 311.976562 284.183594 C 312.601562 282.308594 313.1875 280.417969 313.726562 278.511719 C 314.265625 276.605469 314.757812 274.691406 315.207031 272.761719 C 315.65625 270.835938 316.0625 268.898438 316.417969 266.949219 C 316.777344 265.003906 317.089844 263.046875 317.355469 261.085938 C 312.707031 267.476562 307.507812 273.382812 301.761719 278.804688 C 296.011719 284.226562 289.808594 289.070312 283.15625 293.335938 Z M 283.15625 293.335938 " fill-opacity="1" fill-rule="nonzero"/></g><path fill="#ffffff" d="M 209.28125 83.75 C 208.328125 83.75 207.390625 83.632812 206.46875 83.402344 C 205.542969 83.167969 204.660156 82.828125 203.824219 82.375 C 202.984375 81.925781 202.214844 81.375 201.511719 80.734375 C 200.808594 80.089844 200.195312 79.371094 199.671875 78.574219 C 198.324219 76.527344 196.972656 74.550781 195.644531 72.539062 C 195.203125 71.914062 194.824219 71.253906 194.511719 70.554688 C 194.199219 69.855469 193.960938 69.128906 193.792969 68.382812 C 193.625 67.636719 193.535156 66.878906 193.519531 66.113281 C 193.503906 65.347656 193.5625 64.585938 193.699219 63.832031 C 193.832031 63.078125 194.042969 62.347656 194.324219 61.636719 C 194.605469 60.921875 194.957031 60.246094 195.375 59.605469 C 195.792969 58.960938 196.269531 58.367188 196.804688 57.820312 C 197.34375 57.273438 197.925781 56.785156 198.5625 56.355469 C 199.195312 55.925781 199.867188 55.5625 200.570312 55.265625 C 201.277344 54.972656 202.007812 54.746094 202.757812 54.597656 C 203.507812 54.449219 204.269531 54.375 205.035156 54.375 C 205.800781 54.375 206.558594 54.453125 207.308594 54.605469 C 208.058594 54.757812 208.789062 54.984375 209.492188 55.285156 C 210.199219 55.582031 210.867188 55.945312 211.5 56.378906 C 212.132812 56.8125 212.714844 57.300781 213.25 57.851562 C 213.785156 58.398438 214.257812 58.996094 214.675781 59.640625 C 216.078125 61.699219 217.480469 63.804688 218.882812 65.960938 C 219.449219 66.828125 219.890625 67.753906 220.207031 68.742188 C 220.519531 69.726562 220.699219 70.734375 220.746094 71.769531 C 220.789062 72.804688 220.691406 73.824219 220.460938 74.832031 C 220.226562 75.84375 219.867188 76.800781 219.375 77.710938 C 218.882812 78.625 218.28125 79.453125 217.5625 80.199219 C 216.847656 80.949219 216.046875 81.585938 215.160156 82.117188 C 214.269531 82.648438 213.328125 83.054688 212.332031 83.332031 C 211.332031 83.605469 210.316406 83.746094 209.28125 83.75 Z M 209.28125 83.75 " fill-opacity="1" fill-rule="nonzero"/><path fill="#ffffff" d="M 274.390625 209.804688 C 273.796875 209.804688 273.203125 209.757812 272.617188 209.664062 C 272.027344 209.574219 271.453125 209.4375 270.886719 209.253906 C 270.320312 209.074219 269.769531 208.847656 269.238281 208.582031 C 268.707031 208.3125 268.199219 208.007812 267.714844 207.664062 C 267.230469 207.316406 266.777344 206.933594 266.351562 206.519531 C 265.929688 206.101562 265.539062 205.65625 265.183594 205.179688 C 264.828125 204.703125 264.511719 204.203125 264.230469 203.675781 C 263.953125 203.148438 263.71875 202.605469 263.527344 202.042969 C 251.984375 170.726562 237.644531 140.753906 220.503906 112.117188 C 220.121094 111.464844 219.808594 110.78125 219.5625 110.070312 C 219.316406 109.355469 219.140625 108.625 219.039062 107.875 C 218.9375 107.128906 218.90625 106.375 218.953125 105.621094 C 219 104.867188 219.117188 104.125 219.308594 103.394531 C 219.503906 102.664062 219.761719 101.960938 220.09375 101.28125 C 220.425781 100.601562 220.820312 99.964844 221.277344 99.363281 C 221.734375 98.761719 222.242188 98.210938 222.808594 97.707031 C 223.375 97.207031 223.984375 96.765625 224.636719 96.386719 C 225.289062 96.007812 225.972656 95.691406 226.683594 95.445312 C 227.398438 95.199219 228.128906 95.027344 228.878906 94.925781 C 229.628906 94.824219 230.378906 94.796875 231.132812 94.839844 C 231.886719 94.886719 232.628906 95.007812 233.359375 95.199219 C 234.089844 95.390625 234.792969 95.652344 235.472656 95.984375 C 236.152344 96.316406 236.789062 96.710938 237.390625 97.167969 C 237.992188 97.625 238.542969 98.136719 239.042969 98.703125 C 239.542969 99.265625 239.984375 99.875 240.363281 100.527344 C 258.246094 130.480469 273.210938 161.824219 285.261719 194.558594 C 285.410156 194.988281 285.53125 195.429688 285.628906 195.875 C 285.726562 196.320312 285.796875 196.769531 285.839844 197.226562 C 285.882812 197.679688 285.898438 198.136719 285.886719 198.589844 C 285.875 199.046875 285.835938 199.5 285.769531 199.953125 C 285.707031 200.40625 285.613281 200.851562 285.496094 201.292969 C 285.375 201.730469 285.230469 202.164062 285.0625 202.585938 C 284.890625 203.011719 284.699219 203.421875 284.480469 203.824219 C 284.261719 204.222656 284.019531 204.609375 283.753906 204.980469 C 283.488281 205.351562 283.203125 205.707031 282.894531 206.046875 C 282.585938 206.382812 282.261719 206.699219 281.917969 207 C 281.570312 207.296875 281.210938 207.574219 280.832031 207.832031 C 280.453125 208.085938 280.0625 208.320312 279.65625 208.527344 C 279.25 208.738281 278.832031 208.921875 278.40625 209.082031 C 277.980469 209.238281 277.542969 209.371094 277.097656 209.480469 C 276.65625 209.585938 276.207031 209.667969 275.753906 209.722656 C 275.300781 209.777344 274.847656 209.804688 274.390625 209.804688 Z M 274.390625 209.804688 " fill-opacity="1" fill-rule="nonzero"/><path fill="#ffffff" d="M 157.542969 319.027344 C 156.976562 319.027344 156.421875 318.945312 155.875 318.777344 C 155.332031 318.613281 154.824219 318.375 154.351562 318.058594 C 153.878906 317.742188 153.460938 317.363281 153.101562 316.925781 C 152.742188 316.484375 152.453125 316.003906 152.234375 315.476562 C 152.015625 314.953125 151.878906 314.40625 151.824219 313.839844 C 151.769531 313.277344 151.796875 312.714844 151.90625 312.15625 C 152.019531 311.597656 152.207031 311.070312 152.476562 310.570312 C 152.742188 310.066406 153.078125 309.617188 153.480469 309.214844 L 222.464844 240.230469 C 222.730469 239.972656 223.023438 239.742188 223.335938 239.539062 C 223.648438 239.335938 223.980469 239.164062 224.328125 239.027344 C 224.671875 238.886719 225.03125 238.785156 225.398438 238.714844 C 225.765625 238.648438 226.132812 238.613281 226.507812 238.617188 C 226.878906 238.621094 227.25 238.660156 227.617188 238.734375 C 227.980469 238.808594 228.335938 238.917969 228.679688 239.0625 C 229.023438 239.207031 229.351562 239.382812 229.660156 239.59375 C 229.972656 239.800781 230.257812 240.035156 230.523438 240.300781 C 230.785156 240.566406 231.023438 240.851562 231.230469 241.160156 C 231.4375 241.472656 231.613281 241.796875 231.757812 242.144531 C 231.902344 242.488281 232.011719 242.84375 232.089844 243.207031 C 232.164062 243.574219 232.203125 243.941406 232.207031 244.316406 C 232.207031 244.6875 232.175781 245.058594 232.105469 245.425781 C 232.039062 245.792969 231.933594 246.148438 231.796875 246.496094 C 231.65625 246.84375 231.488281 247.171875 231.285156 247.488281 C 231.082031 247.800781 230.851562 248.089844 230.59375 248.359375 L 161.609375 317.34375 C 161.070312 317.882812 160.449219 318.296875 159.746094 318.589844 C 159.039062 318.878906 158.308594 319.027344 157.542969 319.027344 Z M 157.542969 319.027344 " fill-opacity="1" fill-rule="nonzero"/><path fill="#ffffff" d="M 215.03125 324.773438 C 214.464844 324.773438 213.902344 324.746094 213.339844 324.691406 C 212.777344 324.636719 212.21875 324.554688 211.667969 324.445312 C 211.113281 324.332031 210.566406 324.195312 210.023438 324.03125 C 209.484375 323.867188 208.953125 323.679688 208.429688 323.460938 C 207.910156 323.246094 207.398438 323.003906 206.902344 322.738281 C 206.402344 322.472656 205.917969 322.183594 205.449219 321.867188 C 204.980469 321.554688 204.527344 321.21875 204.089844 320.859375 C 203.652344 320.503906 203.234375 320.125 202.835938 319.722656 C 202.4375 319.324219 202.058594 318.90625 201.699219 318.46875 C 201.339844 318.035156 201.003906 317.582031 200.691406 317.109375 C 200.378906 316.640625 200.085938 316.15625 199.820312 315.660156 C 199.554688 315.160156 199.3125 314.652344 199.097656 314.128906 C 198.882812 313.605469 198.691406 313.078125 198.527344 312.535156 C 198.363281 311.996094 198.226562 311.449219 198.117188 310.894531 C 198.007812 310.339844 197.921875 309.78125 197.867188 309.21875 C 197.8125 308.65625 197.785156 308.09375 197.785156 307.53125 C 197.785156 306.964844 197.8125 306.402344 197.867188 305.839844 C 197.921875 305.277344 198.007812 304.71875 198.117188 304.164062 C 198.226562 303.609375 198.363281 303.0625 198.527344 302.523438 C 198.691406 301.984375 198.882812 301.453125 199.097656 300.929688 C 199.3125 300.40625 199.554688 299.898438 199.820312 299.398438 C 200.085938 298.902344 200.378906 298.417969 200.691406 297.949219 C 201.003906 297.480469 201.339844 297.027344 201.699219 296.589844 C 202.058594 296.152344 202.4375 295.734375 202.835938 295.335938 C 203.234375 294.9375 203.652344 294.558594 204.089844 294.199219 C 204.527344 293.839844 204.980469 293.503906 205.449219 293.191406 C 205.917969 292.875 206.402344 292.585938 206.902344 292.320312 C 207.398438 292.054688 207.910156 291.8125 208.429688 291.597656 C 208.953125 291.378906 209.484375 291.191406 210.023438 291.027344 C 210.566406 290.863281 211.113281 290.726562 211.667969 290.613281 C 212.21875 290.503906 212.777344 290.421875 213.339844 290.367188 C 213.902344 290.3125 214.464844 290.285156 215.03125 290.285156 C 215.59375 290.285156 216.160156 290.3125 216.722656 290.367188 C 217.28125 290.421875 217.839844 290.503906 218.394531 290.613281 C 218.949219 290.726562 219.496094 290.863281 220.035156 291.027344 C 220.578125 291.191406 221.109375 291.378906 221.628906 291.597656 C 222.152344 291.8125 222.660156 292.054688 223.160156 292.320312 C 223.660156 292.585938 224.140625 292.875 224.613281 293.191406 C 225.082031 293.503906 225.535156 293.839844 225.972656 294.199219 C 226.40625 294.558594 226.824219 294.9375 227.226562 295.335938 C 227.625 295.734375 228.003906 296.152344 228.363281 296.589844 C 228.71875 297.027344 229.054688 297.480469 229.371094 297.949219 C 229.683594 298.417969 229.972656 298.902344 230.238281 299.398438 C 230.507812 299.898438 230.746094 300.40625 230.964844 300.929688 C 231.179688 301.453125 231.371094 301.984375 231.535156 302.523438 C 231.699219 303.0625 231.835938 303.609375 231.945312 304.164062 C 232.054688 304.71875 232.136719 305.277344 232.191406 305.839844 C 232.25 306.402344 232.277344 306.964844 232.277344 307.53125 C 232.277344 308.09375 232.25 308.65625 232.191406 309.21875 C 232.136719 309.78125 232.054688 310.339844 231.945312 310.894531 C 231.835938 311.449219 231.699219 311.996094 231.535156 312.535156 C 231.371094 313.078125 231.179688 313.605469 230.964844 314.128906 C 230.746094 314.652344 230.507812 315.160156 230.238281 315.660156 C 229.972656 316.15625 229.683594 316.640625 229.371094 317.109375 C 229.054688 317.582031 228.71875 318.035156 228.363281 318.46875 C 228.003906 318.90625 227.625 319.324219 227.226562 319.722656 C 226.824219 320.125 226.40625 320.503906 225.972656 320.859375 C 225.535156 321.21875 225.082031 321.554688 224.613281 321.867188 C 224.140625 322.183594 223.660156 322.472656 223.160156 322.738281 C 222.660156 323.003906 222.152344 323.246094 221.628906 323.460938 C 221.109375 323.679688 220.578125 323.867188 220.035156 324.03125 C 219.496094 324.195312 218.949219 324.332031 218.394531 324.445312 C 217.839844 324.554688 217.28125 324.636719 216.722656 324.691406 C 216.160156 324.746094 215.59375 324.773438 215.03125 324.773438 Z M 215.03125 301.78125 C 214.652344 301.78125 214.277344 301.816406 213.910156 301.890625 C 213.539062 301.964844 213.179688 302.074219 212.832031 302.21875 C 212.480469 302.363281 212.152344 302.539062 211.835938 302.75 C 211.523438 302.960938 211.234375 303.199219 210.964844 303.464844 C 210.699219 303.730469 210.460938 304.023438 210.25 304.335938 C 210.042969 304.648438 209.863281 304.980469 209.71875 305.328125 C 209.574219 305.679688 209.464844 306.039062 209.390625 306.40625 C 209.320312 306.777344 209.28125 307.152344 209.28125 307.53125 C 209.28125 307.90625 209.320312 308.28125 209.390625 308.652344 C 209.464844 309.019531 209.574219 309.378906 209.71875 309.730469 C 209.863281 310.078125 210.042969 310.410156 210.25 310.722656 C 210.460938 311.035156 210.699219 311.328125 210.964844 311.59375 C 211.234375 311.859375 211.523438 312.097656 211.835938 312.308594 C 212.152344 312.519531 212.480469 312.695312 212.832031 312.839844 C 213.179688 312.984375 213.539062 313.09375 213.910156 313.167969 C 214.277344 313.242188 214.652344 313.277344 215.03125 313.277344 C 215.40625 313.277344 215.78125 313.242188 216.152344 313.167969 C 216.523438 313.09375 216.882812 312.984375 217.230469 312.839844 C 217.578125 312.695312 217.910156 312.519531 218.222656 312.308594 C 218.539062 312.097656 218.828125 311.859375 219.09375 311.59375 C 219.363281 311.328125 219.601562 311.035156 219.808594 310.722656 C 220.019531 310.410156 220.195312 310.078125 220.339844 309.730469 C 220.484375 309.378906 220.59375 309.019531 220.667969 308.652344 C 220.742188 308.28125 220.777344 307.90625 220.777344 307.53125 C 220.777344 307.152344 220.742188 306.777344 220.667969 306.40625 C 220.59375 306.039062 220.484375 305.679688 220.339844 305.328125 C 220.195312 304.980469 220.019531 304.648438 219.808594 304.335938 C 219.601562 304.023438 219.363281 303.730469 219.09375 303.464844 C 218.828125 303.199219 218.539062 302.960938 218.222656 302.75 C 217.910156 302.539062 217.578125 302.363281 217.230469 302.21875 C 216.882812 302.074219 216.523438 301.964844 216.152344 301.890625 C 215.78125 301.816406 215.40625 301.78125 215.03125 301.78125 Z M 215.03125 301.78125 " fill-opacity="1" fill-rule="nonzero"/><path fill="#ffffff" d="M 169.042969 267.289062 C 168.476562 267.289062 167.914062 267.261719 167.351562 267.207031 C 166.789062 267.152344 166.230469 267.066406 165.675781 266.957031 C 165.125 266.847656 164.578125 266.710938 164.035156 266.546875 C 163.496094 266.382812 162.964844 266.191406 162.441406 265.976562 C 161.921875 265.761719 161.410156 265.519531 160.914062 265.253906 C 160.414062 264.988281 159.929688 264.695312 159.460938 264.382812 C 158.992188 264.070312 158.539062 263.734375 158.101562 263.375 C 157.664062 263.015625 157.246094 262.636719 156.847656 262.238281 C 156.449219 261.839844 156.070312 261.421875 155.710938 260.984375 C 155.351562 260.546875 155.015625 260.09375 154.703125 259.625 C 154.390625 259.15625 154.097656 258.671875 153.832031 258.171875 C 153.566406 257.675781 153.324219 257.164062 153.109375 256.644531 C 152.894531 256.121094 152.703125 255.589844 152.539062 255.050781 C 152.375 254.507812 152.238281 253.960938 152.128906 253.410156 C 152.015625 252.855469 151.933594 252.296875 151.878906 251.734375 C 151.824219 251.171875 151.796875 250.609375 151.796875 250.042969 C 151.796875 249.480469 151.824219 248.914062 151.878906 248.351562 C 151.933594 247.792969 152.015625 247.234375 152.128906 246.679688 C 152.238281 246.125 152.375 245.578125 152.539062 245.039062 C 152.703125 244.496094 152.894531 243.964844 153.109375 243.445312 C 153.324219 242.921875 153.566406 242.414062 153.832031 241.914062 C 154.097656 241.417969 154.390625 240.933594 154.703125 240.460938 C 155.015625 239.992188 155.351562 239.539062 155.710938 239.101562 C 156.070312 238.667969 156.449219 238.25 156.847656 237.847656 C 157.246094 237.449219 157.664062 237.070312 158.101562 236.710938 C 158.539062 236.355469 158.992188 236.019531 159.460938 235.703125 C 159.929688 235.390625 160.414062 235.101562 160.914062 234.835938 C 161.410156 234.566406 161.921875 234.328125 162.441406 234.109375 C 162.964844 233.894531 163.496094 233.703125 164.035156 233.539062 C 164.578125 233.375 165.125 233.238281 165.675781 233.128906 C 166.230469 233.019531 166.789062 232.9375 167.351562 232.882812 C 167.914062 232.824219 168.476562 232.796875 169.042969 232.796875 C 169.605469 232.796875 170.171875 232.824219 170.730469 232.882812 C 171.292969 232.9375 171.851562 233.019531 172.40625 233.128906 C 172.960938 233.238281 173.507812 233.375 174.046875 233.539062 C 174.589844 233.703125 175.121094 233.894531 175.640625 234.109375 C 176.164062 234.328125 176.671875 234.566406 177.171875 234.835938 C 177.667969 235.101562 178.152344 235.390625 178.625 235.703125 C 179.09375 236.019531 179.546875 236.355469 179.984375 236.710938 C 180.417969 237.070312 180.835938 237.449219 181.238281 237.847656 C 181.636719 238.25 182.015625 238.667969 182.371094 239.101562 C 182.730469 239.539062 183.066406 239.992188 183.382812 240.460938 C 183.695312 240.933594 183.984375 241.417969 184.25 241.914062 C 184.515625 242.414062 184.757812 242.921875 184.976562 243.445312 C 185.191406 243.964844 185.382812 244.496094 185.546875 245.039062 C 185.707031 245.578125 185.847656 246.125 185.957031 246.679688 C 186.066406 247.234375 186.148438 247.792969 186.203125 248.351562 C 186.261719 248.914062 186.289062 249.480469 186.289062 250.042969 C 186.289062 250.609375 186.261719 251.171875 186.203125 251.734375 C 186.148438 252.296875 186.066406 252.855469 185.957031 253.410156 C 185.847656 253.960938 185.707031 254.507812 185.546875 255.050781 C 185.382812 255.589844 185.191406 256.121094 184.976562 256.644531 C 184.757812 257.164062 184.515625 257.675781 184.25 258.171875 C 183.984375 258.671875 183.695312 259.15625 183.382812 259.625 C 183.066406 260.09375 182.730469 260.546875 182.371094 260.984375 C 182.015625 261.421875 181.636719 261.839844 181.238281 262.238281 C 180.835938 262.636719 180.417969 263.015625 179.984375 263.375 C 179.546875 263.734375 179.09375 264.070312 178.625 264.382812 C 178.152344 264.695312 177.667969 264.988281 177.171875 265.253906 C 176.671875 265.519531 176.164062 265.761719 175.640625 265.976562 C 175.121094 266.191406 174.589844 266.382812 174.046875 266.546875 C 173.507812 266.710938 172.960938 266.847656 172.40625 266.957031 C 171.851562 267.066406 171.292969 267.152344 170.730469 267.207031 C 170.171875 267.261719 169.605469 267.289062 169.042969 267.289062 Z M 169.042969 244.296875 C 168.664062 244.296875 168.289062 244.332031 167.921875 244.40625 C 167.550781 244.480469 167.191406 244.589844 166.84375 244.734375 C 166.492188 244.878906 166.160156 245.054688 165.847656 245.265625 C 165.535156 245.472656 165.242188 245.710938 164.976562 245.980469 C 164.710938 246.246094 164.472656 246.535156 164.261719 246.851562 C 164.050781 247.164062 163.875 247.496094 163.730469 247.84375 C 163.585938 248.191406 163.476562 248.550781 163.402344 248.921875 C 163.332031 249.292969 163.292969 249.667969 163.292969 250.042969 C 163.292969 250.421875 163.332031 250.796875 163.402344 251.164062 C 163.476562 251.535156 163.585938 251.894531 163.730469 252.242188 C 163.875 252.59375 164.050781 252.921875 164.261719 253.238281 C 164.472656 253.550781 164.710938 253.839844 164.976562 254.109375 C 165.242188 254.375 165.535156 254.613281 165.847656 254.824219 C 166.160156 255.035156 166.492188 255.210938 166.84375 255.355469 C 167.191406 255.5 167.550781 255.609375 167.921875 255.683594 C 168.289062 255.753906 168.664062 255.792969 169.042969 255.792969 C 169.417969 255.792969 169.792969 255.753906 170.164062 255.683594 C 170.535156 255.609375 170.894531 255.5 171.242188 255.355469 C 171.589844 255.210938 171.921875 255.035156 172.234375 254.824219 C 172.550781 254.613281 172.839844 254.375 173.105469 254.109375 C 173.375 253.839844 173.613281 253.550781 173.820312 253.238281 C 174.03125 252.921875 174.207031 252.59375 174.351562 252.242188 C 174.496094 251.894531 174.605469 251.535156 174.679688 251.164062 C 174.753906 250.796875 174.789062 250.421875 174.789062 250.042969 C 174.789062 249.667969 174.753906 249.292969 174.679688 248.921875 C 174.605469 248.550781 174.496094 248.191406 174.351562 247.84375 C 174.207031 247.496094 174.03125 247.164062 173.820312 246.851562 C 173.613281 246.535156 173.375 246.246094 173.105469 245.980469 C 172.839844 245.710938 172.550781 245.472656 172.234375 245.265625 C 171.921875 245.054688 171.589844 244.878906 171.242188 244.734375 C 170.894531 244.589844 170.535156 244.480469 170.164062 244.40625 C 169.792969 244.332031 169.417969 244.296875 169.042969 244.296875 Z M 169.042969 244.296875 " fill-opacity="1" fill-rule="nonzero"/></svg>