<svg xmlns="http://www.w3.org/2000/svg" xmlns:xlink="http://www.w3.org/1999/xlink" width="500" zoomAndPan="magnify" viewBox="0 0 375 374.999991" height="500" preserveAspectRatio="xMidYMid meet" version="1.0"><defs><clipPath id="04e28714f7"><path d="M 20.75 84 L 50 84 L 50 93 L 20.75 93 Z M 20.75 84 " clip-rule="nonzero"/></clipPath><clipPath id="d1b5e15bfb"><path d="M 128 3.070312 L 244 3.070312 L 244 375 L 128 375 Z M 128 3.070312 " clip-rule="nonzero"/></clipPath><clipPath id="73ba103bfa"><path d="M 235 171 L 354.5 171 L 354.5 276 L 235 276 Z M 235 171 " clip-rule="nonzero"/></clipPath></defs><rect x="-37.5" width="450" fill="#ffffff" y="-37.499999" height="449.999989" fill-opacity="1"/><rect x="-37.5" width="450" fill="#ffffff" y="-37.499999" height="449.999989" fill-opacity="1"/><path fill="#ebc21c" d="M 51.714844 88.816406 C 51.699219 103.828125 63.871094 116.007812 78.890625 116.019531 C 93.910156 116.03125 106.101562 103.871094 106.109375 88.859375 C 106.125 73.84375 93.953125 61.667969 78.933594 61.652344 C 63.914062 61.644531 51.726562 73.800781 51.714844 88.816406 " fill-opacity="1" fill-rule="nonzero"/><path fill="#ebc21c" d="M 82.996094 59.316406 L 74.875 59.308594 L 74.898438 30.746094 L 83.019531 30.753906 L 82.996094 59.316406 " fill-opacity="1" fill-rule="nonzero"/><path fill="#ebc21c" d="M 82.925781 146.929688 L 74.808594 146.921875 L 74.828125 118.355469 L 82.949219 118.363281 L 82.925781 146.929688 " fill-opacity="1" fill-rule="nonzero"/><path fill="#ebc21c" d="M 67.683594 61.230469 L 60.644531 65.285156 L 46.371094 40.535156 L 53.410156 36.484375 L 67.683594 61.230469 " fill-opacity="1" fill-rule="nonzero"/><path fill="#ebc21c" d="M 111.449219 137.136719 L 104.414062 141.1875 L 90.144531 116.445312 L 97.183594 112.390625 L 111.449219 137.136719 " fill-opacity="1" fill-rule="nonzero"/><path fill="#ebc21c" d="M 55.375 70.542969 L 51.308594 77.570312 L 26.570312 63.265625 L 30.636719 56.242188 L 55.375 70.542969 " fill-opacity="1" fill-rule="nonzero"/><path fill="#ebc21c" d="M 131.257812 114.40625 L 127.191406 121.433594 L 102.453125 107.128906 L 106.519531 100.105469 L 131.257812 114.40625 " fill-opacity="1" fill-rule="nonzero"/><g clip-path="url(#04e28714f7)"><path fill="#ebc21c" d="M 49.375 84.753906 L 49.371094 92.875 L 20.789062 92.851562 L 20.796875 84.734375 L 49.375 84.753906 " fill-opacity="1" fill-rule="nonzero"/></g><path fill="#ebc21c" d="M 137.035156 84.824219 L 137.027344 92.941406 L 108.453125 92.917969 L 108.457031 84.800781 L 137.035156 84.824219 " fill-opacity="1" fill-rule="nonzero"/><path fill="#ebc21c" d="M 51.289062 100.0625 L 55.347656 107.09375 L 30.585938 121.355469 L 26.527344 114.324219 L 51.289062 100.0625 " fill-opacity="1" fill-rule="nonzero"/><path fill="#ebc21c" d="M 127.242188 56.320312 L 131.296875 63.351562 L 106.535156 77.613281 L 102.480469 70.578125 L 127.242188 56.320312 " fill-opacity="1" fill-rule="nonzero"/><path fill="#ebc21c" d="M 60.605469 112.359375 L 67.636719 116.425781 L 53.328125 141.148438 L 46.296875 137.085938 L 60.605469 112.359375 " fill-opacity="1" fill-rule="nonzero"/><path fill="#ebc21c" d="M 104.496094 36.523438 L 111.527344 40.589844 L 97.21875 65.3125 L 90.1875 61.25 L 104.496094 36.523438 " fill-opacity="1" fill-rule="nonzero"/><path fill="#ee2e32" d="M 185.746094 371.246094 C 156.253906 371.246094 132.261719 347.273438 132.261719 317.800781 C 132.261719 307.753906 135.070312 297.957031 140.386719 289.460938 C 144.882812 282.289062 151.113281 276.199219 158.398438 271.851562 L 159.761719 271.042969 L 159.761719 34.316406 C 159.761719 26.605469 162.460938 19.589844 167.363281 14.570312 C 172.160156 9.671875 178.6875 6.972656 185.746094 6.972656 C 192.792969 6.972656 199.320312 9.667969 204.117188 14.570312 C 209.015625 19.589844 211.714844 26.605469 211.714844 34.316406 L 211.714844 271.042969 L 213.078125 271.851562 C 220.367188 276.195312 226.59375 282.28125 231.09375 289.457031 C 236.410156 297.941406 239.222656 307.742188 239.222656 317.800781 C 239.222656 347.273438 215.230469 371.246094 185.746094 371.246094 " fill-opacity="1" fill-rule="nonzero"/><g clip-path="url(#d1b5e15bfb)"><path fill="#ee2e32" d="M 185.746094 375.121094 C 154.117188 375.121094 128.386719 349.40625 128.386719 317.796875 C 128.386719 307.027344 131.402344 296.515625 137.101562 287.40625 C 141.820312 279.878906 148.296875 273.484375 155.890625 268.84375 L 155.890625 34.316406 C 155.890625 25.585938 158.980469 17.617188 164.59375 11.863281 C 170.125 6.210938 177.636719 3.097656 185.746094 3.097656 C 193.847656 3.097656 201.355469 6.210938 206.882812 11.859375 C 212.503906 17.613281 215.589844 25.585938 215.589844 34.316406 L 215.589844 268.84375 C 223.179688 273.480469 229.65625 279.871094 234.378906 287.402344 C 240.082031 296.507812 243.09375 307.015625 243.09375 317.796875 C 243.09375 349.40625 217.367188 375.121094 185.746094 375.121094 " fill-opacity="1" fill-rule="nonzero"/></g><path fill="#ffffff" d="M 185.746094 372.90625 C 155.339844 372.90625 130.605469 348.183594 130.605469 317.796875 C 130.605469 307.441406 133.5 297.339844 138.980469 288.582031 C 143.75 280.976562 150.34375 274.613281 158.105469 270.101562 L 158.105469 34.316406 C 158.105469 26.167969 160.972656 18.742188 166.179688 13.414062 C 171.289062 8.1875 178.238281 5.3125 185.746094 5.3125 C 193.242188 5.3125 200.191406 8.1875 205.300781 13.410156 C 210.507812 18.742188 213.375 26.167969 213.375 34.316406 L 213.375 270.101562 C 221.136719 274.605469 227.730469 280.972656 232.5 288.582031 C 237.976562 297.332031 240.878906 307.433594 240.878906 317.796875 C 240.878906 348.183594 216.144531 372.90625 185.746094 372.90625 " fill-opacity="1" fill-rule="nonzero"/><path fill="#51abe4" d="M 238.660156 317.800781 C 238.660156 346.964844 214.921875 370.691406 185.746094 370.691406 C 156.558594 370.691406 132.820312 346.964844 132.820312 317.800781 C 132.820312 307.847656 135.605469 298.15625 140.859375 289.757812 C 145.671875 282.074219 152.398438 275.746094 160.324219 271.398438 L 160.324219 34.316406 C 160.324219 26.746094 162.96875 19.875 167.765625 14.960938 C 172.449219 10.171875 178.832031 7.53125 185.746094 7.53125 C 192.652344 7.53125 199.03125 10.171875 203.714844 14.960938 C 208.511719 19.875 211.15625 26.746094 211.15625 34.316406 L 211.15625 271.398438 C 219.09375 275.746094 225.804688 282.074219 230.617188 289.757812 C 235.875 298.144531 238.660156 307.847656 238.660156 317.800781 " fill-opacity="1" fill-rule="nonzero"/><path fill="#ffffff" d="M 185.746094 367.894531 C 158.105469 367.894531 135.617188 345.421875 135.617188 317.800781 C 135.617188 308.382812 138.25 299.199219 143.230469 291.238281 C 147.777344 283.988281 154.152344 277.972656 161.671875 273.847656 L 163.121094 273.050781 L 163.121094 34.316406 C 163.121094 27.484375 165.480469 21.300781 169.765625 16.910156 C 173.925781 12.667969 179.597656 10.328125 185.746094 10.328125 C 191.886719 10.328125 197.558594 12.667969 201.714844 16.914062 C 206 21.300781 208.359375 27.484375 208.359375 34.316406 L 208.359375 273.050781 L 209.8125 273.847656 C 217.324219 277.964844 223.699219 283.980469 228.25 291.238281 C 233.230469 299.191406 235.863281 308.375 235.863281 317.800781 C 235.863281 345.421875 213.382812 367.894531 185.746094 367.894531 " fill-opacity="1" fill-rule="nonzero"/><path fill="#51abe4" d="M 196.03125 282.03125 L 196.03125 61.449219 L 175.449219 61.449219 L 175.449219 282.03125 C 159.636719 286.503906 148.050781 301.039062 148.050781 318.277344 C 148.050781 339.082031 164.925781 355.949219 185.742188 355.949219 C 206.558594 355.949219 223.433594 339.082031 223.433594 318.277344 C 223.433594 301.039062 211.847656 286.503906 196.03125 282.03125 " fill-opacity="1" fill-rule="nonzero"/><path fill="#ee2e32" d="M 185.742188 61.449219 L 175.449219 61.449219 L 175.449219 282.03125 C 159.460938 286.503906 147.886719 301.039062 147.886719 318.277344 C 147.886719 339 164.808594 355.808594 185.742188 355.941406 L 185.742188 61.449219 " fill-opacity="1" fill-rule="nonzero"/><path fill="#9bdae6" d="M 196.03125 193.578125 L 185.742188 193.578125 L 185.742188 61.449219 L 196.03125 61.449219 L 196.03125 193.578125 " fill-opacity="1" fill-rule="nonzero"/><path fill="#ffffff" d="M 190.144531 68.019531 L 181.695312 68.003906 L 181.699219 65.5 L 190.144531 65.515625 L 190.144531 68.019531 " fill-opacity="1" fill-rule="nonzero"/><path fill="#ffffff" d="M 190.050781 120.941406 L 181.605469 120.929688 L 181.609375 118.421875 L 190.054688 118.4375 L 190.050781 120.941406 " fill-opacity="1" fill-rule="nonzero"/><path fill="#ffffff" d="M 189.964844 173.566406 L 181.515625 173.550781 L 181.519531 171.046875 L 189.96875 171.0625 L 189.964844 173.566406 " fill-opacity="1" fill-rule="nonzero"/><path fill="#ffffff" d="M 189.875 224.597656 L 181.425781 224.582031 L 181.429688 222.078125 L 189.878906 222.09375 L 189.875 224.597656 " fill-opacity="1" fill-rule="nonzero"/><path fill="#ffffff" d="M 189.78125 279.085938 L 181.335938 279.074219 L 181.339844 276.570312 L 189.789062 276.582031 L 189.78125 279.085938 " fill-opacity="1" fill-rule="nonzero"/><path fill="#ffffff" d="M 186.675781 77.339844 L 181.800781 77.332031 L 181.800781 75.402344 L 186.679688 75.414062 L 186.675781 77.339844 " fill-opacity="1" fill-rule="nonzero"/><path fill="#ffffff" d="M 186.65625 87.894531 L 181.777344 87.882812 L 181.785156 85.953125 L 186.660156 85.964844 L 186.65625 87.894531 " fill-opacity="1" fill-rule="nonzero"/><path fill="#ffffff" d="M 186.640625 98.445312 L 181.761719 98.4375 L 181.765625 96.507812 L 186.644531 96.515625 L 186.640625 98.445312 " fill-opacity="1" fill-rule="nonzero"/><path fill="#ffffff" d="M 186.621094 108.996094 L 181.742188 108.988281 L 181.746094 107.058594 L 186.625 107.070312 L 186.621094 108.996094 " fill-opacity="1" fill-rule="nonzero"/><path fill="#ffffff" d="M 186.585938 130.101562 L 181.707031 130.09375 L 181.710938 128.164062 L 186.589844 128.171875 L 186.585938 130.101562 " fill-opacity="1" fill-rule="nonzero"/><path fill="#ffffff" d="M 186.570312 140.652344 L 181.691406 140.644531 L 181.695312 138.714844 L 186.574219 138.726562 L 186.570312 140.652344 " fill-opacity="1" fill-rule="nonzero"/><path fill="#ffffff" d="M 186.550781 151.203125 L 181.671875 151.195312 L 181.675781 149.269531 L 186.554688 149.277344 L 186.550781 151.203125 " fill-opacity="1" fill-rule="nonzero"/><path fill="#ffffff" d="M 186.535156 161.753906 L 181.65625 161.75 L 181.660156 159.820312 L 186.535156 159.828125 L 186.535156 161.753906 " fill-opacity="1" fill-rule="nonzero"/><path fill="#ffffff" d="M 186.496094 183.621094 L 181.617188 183.609375 L 181.621094 181.683594 L 186.496094 181.691406 L 186.496094 183.621094 " fill-opacity="1" fill-rule="nonzero"/><path fill="#ffffff" d="M 186.476562 193.414062 L 181.601562 193.402344 L 181.601562 191.476562 L 186.480469 191.484375 L 186.476562 193.414062 " fill-opacity="1" fill-rule="nonzero"/><path fill="#ffffff" d="M 186.460938 203.964844 L 181.582031 203.957031 L 181.585938 202.027344 L 186.460938 202.035156 L 186.460938 203.964844 " fill-opacity="1" fill-rule="nonzero"/><path fill="#ffffff" d="M 186.441406 214.515625 L 181.5625 214.507812 L 181.566406 212.582031 L 186.445312 212.585938 L 186.441406 214.515625 " fill-opacity="1" fill-rule="nonzero"/><path fill="#ffffff" d="M 186.410156 233.984375 L 181.53125 233.976562 L 181.535156 232.050781 L 186.414062 232.058594 L 186.410156 233.984375 " fill-opacity="1" fill-rule="nonzero"/><path fill="#ffffff" d="M 186.390625 245.886719 L 181.511719 245.878906 L 181.515625 243.949219 L 186.390625 243.957031 L 186.390625 245.886719 " fill-opacity="1" fill-rule="nonzero"/><path fill="#ffffff" d="M 186.371094 256.585938 L 181.492188 256.574219 L 181.496094 254.644531 L 186.375 254.65625 L 186.371094 256.585938 " fill-opacity="1" fill-rule="nonzero"/><path fill="#ffffff" d="M 186.351562 267.859375 L 181.472656 267.847656 L 181.476562 265.917969 L 186.355469 265.929688 L 186.351562 267.859375 " fill-opacity="1" fill-rule="nonzero"/><g clip-path="url(#73ba103bfa)"><path fill="#51abe4" d="M 292.019531 228.402344 C 289.078125 226.761719 288.023438 223.042969 289.660156 220.105469 C 291.300781 217.167969 295.027344 216.113281 297.964844 217.753906 C 300.90625 219.390625 301.960938 223.113281 300.320312 226.050781 C 298.675781 228.984375 294.953125 230.042969 292.019531 228.402344 Z M 325.863281 271.726562 L 319.578125 261.203125 L 326.691406 263 C 327.703125 263.253906 328.726562 262.644531 328.984375 261.632812 C 329.238281 260.621094 328.625 259.59375 327.613281 259.34375 L 316.84375 256.625 L 310.871094 246.617188 L 329.242188 251.253906 C 330.253906 251.511719 331.28125 250.898438 331.535156 249.886719 C 331.789062 248.878906 331.179688 247.851562 330.171875 247.597656 L 308.132812 242.039062 L 301.332031 230.644531 C 302.230469 229.890625 303.011719 228.96875 303.613281 227.886719 C 304.105469 227.007812 304.449219 226.085938 304.648438 225.148438 L 318.371094 224.949219 L 334.015625 240.140625 C 334.136719 240.257812 334.269531 240.359375 334.414062 240.433594 C 335.140625 240.839844 336.074219 240.726562 336.683594 240.101562 C 337.410156 239.355469 337.394531 238.164062 336.644531 237.4375 L 323.707031 224.875 L 335.503906 224.699219 L 343.234375 232.207031 C 343.359375 232.328125 343.492188 232.425781 343.632812 232.503906 C 344.359375 232.910156 345.296875 232.796875 345.902344 232.167969 C 346.628906 231.421875 346.613281 230.230469 345.867188 229.503906 L 340.84375 224.625 L 352.636719 224.453125 C 353.675781 224.441406 354.511719 223.582031 354.496094 222.539062 C 354.480469 221.5 353.625 220.664062 352.582031 220.683594 L 340.324219 220.863281 L 345.433594 215.601562 C 346.160156 214.855469 346.140625 213.664062 345.394531 212.9375 C 344.648438 212.207031 343.453125 212.226562 342.726562 212.976562 L 334.984375 220.9375 L 323.328125 221.105469 L 336.535156 207.519531 C 337.261719 206.773438 337.242188 205.578125 336.496094 204.851562 C 335.75 204.125 334.554688 204.144531 333.828125 204.890625 L 317.992188 221.179688 L 304.714844 221.375 C 304.339844 219.246094 303.269531 217.253906 301.613281 215.753906 L 308.300781 203.78125 L 329.289062 197.835938 C 330.289062 197.550781 330.875 196.507812 330.589844 195.503906 C 330.308594 194.503906 329.261719 193.921875 328.257812 194.203125 L 310.90625 199.121094 L 316.652344 188.824219 L 327.027344 185.886719 C 328.03125 185.605469 328.613281 184.5625 328.328125 183.558594 C 328.042969 182.558594 327 181.972656 326 182.257812 L 319.257812 184.167969 L 325.003906 173.875 C 325.511719 172.964844 325.191406 171.816406 324.277344 171.308594 C 323.367188 170.800781 322.21875 171.125 321.710938 172.035156 L 315.734375 182.734375 L 313.734375 175.679688 C 313.453125 174.679688 312.40625 174.097656 311.40625 174.378906 C 310.402344 174.664062 309.820312 175.707031 310.101562 176.710938 L 313.136719 187.390625 L 307.453125 197.566406 L 302.28125 179.339844 C 301.996094 178.339844 300.953125 177.757812 299.953125 178.039062 C 298.949219 178.328125 298.363281 179.371094 298.652344 180.371094 L 304.851562 202.222656 L 298.378906 213.804688 C 296.269531 213.035156 294.007812 213.03125 291.960938 213.691406 L 284.921875 201.90625 L 290.265625 180.769531 C 290.523438 179.761719 289.910156 178.734375 288.898438 178.480469 C 287.886719 178.226562 286.863281 178.839844 286.605469 179.84375 L 282.1875 197.328125 L 276.140625 187.199219 L 278.78125 176.757812 C 279.039062 175.746094 278.425781 174.714844 277.414062 174.464844 C 276.402344 174.210938 275.375 174.820312 275.121094 175.832031 L 273.40625 182.621094 L 267.359375 172.496094 C 266.828125 171.605469 265.667969 171.308594 264.777344 171.84375 C 263.882812 172.378906 263.589844 173.535156 264.125 174.429688 L 270.402344 184.953125 L 263.292969 183.15625 C 262.285156 182.902344 261.257812 183.515625 261.003906 184.523438 C 260.789062 185.371094 261.183594 186.226562 261.910156 186.628906 C 262.050781 186.710938 262.207031 186.773438 262.367188 186.8125 L 273.140625 189.53125 L 279.117188 199.539062 L 260.738281 194.902344 C 259.726562 194.648438 258.699219 195.257812 258.445312 196.265625 C 258.234375 197.113281 258.628906 197.972656 259.355469 198.375 C 259.496094 198.453125 259.648438 198.515625 259.8125 198.558594 L 281.847656 204.117188 L 288.652344 215.511719 C 287.753906 216.261719 286.972656 217.183594 286.367188 218.265625 C 285.875 219.148438 285.535156 220.070312 285.335938 221.007812 L 271.613281 221.207031 L 255.96875 206.015625 C 255.222656 205.289062 254.027344 205.304688 253.300781 206.054688 C 252.574219 206.800781 252.589844 207.996094 253.339844 208.71875 L 266.277344 221.28125 L 254.476562 221.453125 L 246.746094 213.945312 C 246.003906 213.214844 244.804688 213.238281 244.078125 213.984375 C 243.351562 214.730469 243.367188 215.925781 244.117188 216.652344 L 249.140625 221.53125 L 237.347656 221.699219 C 236.304688 221.714844 235.472656 222.574219 235.488281 223.613281 C 235.496094 224.3125 235.886719 224.917969 236.457031 225.234375 C 236.734375 225.390625 237.058594 225.480469 237.40625 225.472656 L 249.660156 225.292969 L 244.550781 230.554688 C 243.820312 231.300781 243.839844 232.496094 244.589844 233.21875 C 244.707031 233.339844 244.84375 233.4375 244.984375 233.515625 C 245.714844 233.921875 246.648438 233.804688 247.253906 233.179688 L 254.996094 225.21875 L 266.65625 225.050781 L 253.449219 238.636719 C 252.71875 239.386719 252.738281 240.578125 253.488281 241.304688 C 253.605469 241.421875 253.742188 241.519531 253.882812 241.597656 C 254.613281 242.003906 255.546875 241.890625 256.15625 241.265625 L 271.992188 224.972656 L 285.269531 224.78125 C 285.644531 226.910156 286.714844 228.902344 288.371094 230.398438 L 281.683594 242.375 L 260.691406 248.320312 C 259.691406 248.605469 259.109375 249.648438 259.394531 250.652344 C 259.675781 251.652344 260.722656 252.234375 261.722656 251.949219 L 279.082031 247.035156 L 273.328125 257.332031 L 262.957031 260.269531 C 261.953125 260.554688 261.371094 261.597656 261.65625 262.597656 C 261.796875 263.097656 262.132812 263.492188 262.550781 263.726562 C 262.972656 263.964844 263.484375 264.042969 263.984375 263.898438 L 270.726562 261.988281 L 264.976562 272.28125 C 264.46875 273.1875 264.796875 274.339844 265.703125 274.847656 C 266.613281 275.355469 267.765625 275.03125 268.269531 274.121094 L 274.246094 263.421875 L 276.246094 270.472656 C 276.535156 271.476562 277.578125 272.058594 278.578125 271.773438 C 279.582031 271.492188 280.164062 270.449219 279.878906 269.445312 L 276.851562 258.765625 L 282.535156 248.589844 L 287.703125 266.816406 C 287.84375 267.3125 288.175781 267.710938 288.597656 267.945312 C 289.019531 268.179688 289.53125 268.253906 290.035156 268.113281 C 291.035156 267.832031 291.617188 266.785156 291.335938 265.785156 L 285.136719 243.929688 L 291.605469 232.347656 C 293.714844 233.121094 295.972656 233.125 298.027344 232.464844 L 305.058594 244.246094 L 299.71875 265.382812 C 299.503906 266.230469 299.898438 267.089844 300.625 267.492188 C 300.769531 267.570312 300.921875 267.632812 301.085938 267.675781 C 302.09375 267.929688 303.121094 267.316406 303.375 266.304688 L 307.792969 248.824219 L 313.839844 258.953125 L 311.203125 269.398438 C 310.988281 270.246094 311.382812 271.101562 312.109375 271.511719 C 312.253906 271.585938 312.40625 271.652344 312.570312 271.691406 C 313.578125 271.945312 314.605469 271.335938 314.859375 270.324219 L 316.574219 263.535156 L 322.621094 273.660156 C 322.796875 273.953125 323.039062 274.183594 323.320312 274.335938 C 323.890625 274.65625 324.605469 274.667969 325.207031 274.308594 C 326.105469 273.777344 326.394531 272.617188 325.863281 271.726562 " fill-opacity="1" fill-rule="nonzero"/></g><path fill="#51abe4" d="M 290.679688 202.480469 L 293.257812 206.929688 C 293.429688 207.230469 293.679688 207.46875 293.96875 207.628906 C 294.253906 207.789062 294.578125 207.875 294.910156 207.867188 C 295.597656 207.863281 296.21875 207.488281 296.546875 206.890625 L 299.25 201.960938 C 299.488281 201.519531 299.546875 201.003906 299.40625 200.527344 L 296.792969 191.582031 C 296.558594 190.777344 295.816406 190.222656 294.972656 190.226562 C 294.132812 190.226562 293.394531 190.789062 293.167969 191.597656 L 290.496094 201.023438 C 290.355469 201.511719 290.421875 202.039062 290.679688 202.480469 " fill-opacity="1" fill-rule="nonzero"/><path fill="#51abe4" d="M 273.632812 215.941406 C 273.761719 216.074219 273.90625 216.183594 274.066406 216.277344 C 274.347656 216.429688 274.660156 216.515625 274.988281 216.515625 L 280.132812 216.503906 C 280.816406 216.503906 281.441406 216.136719 281.773438 215.542969 C 282.109375 214.945312 282.097656 214.21875 281.742188 213.640625 L 278.820312 208.832031 C 278.5625 208.40625 278.140625 208.101562 277.65625 207.980469 L 268.605469 205.773438 C 267.785156 205.570312 266.933594 205.9375 266.515625 206.664062 C 266.097656 207.394531 266.214844 208.316406 266.800781 208.917969 L 273.632812 215.941406 " fill-opacity="1" fill-rule="nonzero"/><path fill="#51abe4" d="M 266.53125 239.519531 C 266.710938 239.816406 266.957031 240.054688 267.242188 240.214844 C 267.65625 240.445312 268.148438 240.519531 268.625 240.398438 L 278.128906 237.996094 C 278.625 237.871094 279.046875 237.550781 279.300781 237.105469 L 281.863281 232.652344 C 282.203125 232.0625 282.199219 231.335938 281.851562 230.75 C 281.507812 230.164062 280.867188 229.808594 280.1875 229.828125 L 274.5625 229.949219 C 274.0625 229.964844 273.585938 230.171875 273.242188 230.535156 L 266.800781 237.265625 C 266.214844 237.871094 266.109375 238.792969 266.53125 239.519531 " fill-opacity="1" fill-rule="nonzero"/><path fill="#51abe4" d="M 299.304688 243.671875 L 296.722656 239.226562 C 296.382812 238.636719 295.75 238.277344 295.070312 238.285156 C 294.386719 238.292969 293.761719 238.667969 293.4375 239.265625 L 290.734375 244.195312 C 290.492188 244.636719 290.4375 245.148438 290.578125 245.632812 L 293.191406 254.570312 C 293.332031 255.058594 293.660156 255.453125 294.078125 255.691406 C 294.355469 255.84375 294.675781 255.929688 295.007812 255.929688 C 295.851562 255.925781 296.585938 255.367188 296.820312 254.558594 L 299.488281 245.132812 C 299.628906 244.640625 299.5625 244.117188 299.304688 243.671875 " fill-opacity="1" fill-rule="nonzero"/><path fill="#51abe4" d="M 316.351562 230.214844 C 315.996094 229.847656 315.507812 229.640625 314.996094 229.640625 L 309.851562 229.652344 C 309.171875 229.652344 308.542969 230.019531 308.207031 230.613281 C 307.875 231.207031 307.886719 231.933594 308.242188 232.515625 L 311.164062 237.320312 C 311.332031 237.605469 311.574219 237.832031 311.855469 237.988281 C 312 238.070312 312.160156 238.136719 312.328125 238.175781 L 321.382812 240.386719 C 322.199219 240.585938 323.046875 240.21875 323.464844 239.488281 C 323.882812 238.757812 323.769531 237.839844 323.183594 237.238281 L 316.351562 230.214844 " fill-opacity="1" fill-rule="nonzero"/><path fill="#51abe4" d="M 323.449219 206.636719 C 323.027344 205.910156 322.171875 205.550781 321.355469 205.757812 L 311.855469 208.160156 C 311.363281 208.28125 310.9375 208.601562 310.679688 209.042969 L 308.117188 213.503906 C 307.777344 214.09375 307.78125 214.820312 308.128906 215.40625 C 308.304688 215.695312 308.546875 215.929688 308.832031 216.089844 C 309.121094 216.25 309.449219 216.339844 309.796875 216.328125 L 315.421875 216.203125 C 315.921875 216.191406 316.398438 215.984375 316.742188 215.621094 L 323.183594 208.890625 C 323.765625 208.28125 323.875 207.363281 323.449219 206.636719 " fill-opacity="1" fill-rule="nonzero"/></svg>