<svg xmlns="http://www.w3.org/2000/svg" xmlns:xlink="http://www.w3.org/1999/xlink" width="500" zoomAndPan="magnify" viewBox="0 0 375 374.999991" height="500" preserveAspectRatio="xMidYMid meet" version="1.0"><defs><clipPath id="2c8ce95a26"><path d="M 182 278 L 263 278 L 263 337.203125 L 182 337.203125 Z M 182 278 " clip-rule="nonzero"/></clipPath></defs><rect x="-37.5" width="450" fill="#ffffff" y="-37.499999" height="449.999989" fill-opacity="1"/><rect x="-37.5" width="450" fill="#ffffff" y="-37.499999" height="449.999989" fill-opacity="1"/><path fill="#beddfc" d="M 309.511719 260.539062 C 310.46875 260.542969 311.425781 260.519531 312.378906 260.476562 C 313.335938 260.429688 314.289062 260.359375 315.238281 260.265625 C 316.191406 260.171875 317.140625 260.054688 318.085938 259.914062 C 319.03125 259.769531 319.972656 259.605469 320.910156 259.414062 C 321.847656 259.222656 322.777344 259.007812 323.703125 258.773438 C 324.628906 258.535156 325.550781 258.273438 326.460938 257.988281 C 327.375 257.703125 328.28125 257.394531 329.175781 257.066406 C 330.074219 256.734375 330.960938 256.378906 331.839844 256.003906 C 332.71875 255.628906 333.589844 255.230469 334.449219 254.808594 C 335.304688 254.390625 336.152344 253.949219 336.988281 253.484375 C 337.828125 253.019531 338.648438 252.535156 339.460938 252.03125 C 340.273438 251.523438 341.070312 251 341.855469 250.453125 C 342.640625 249.90625 343.410156 249.339844 344.167969 248.753906 C 344.921875 248.167969 345.664062 247.5625 346.386719 246.941406 C 347.113281 246.316406 347.820312 245.675781 348.515625 245.015625 C 349.207031 244.355469 349.882812 243.679688 350.539062 242.984375 C 351.195312 242.292969 351.835938 241.582031 352.457031 240.855469 C 353.078125 240.128906 353.683594 239.386719 354.265625 238.628906 C 354.847656 237.871094 355.414062 237.101562 355.957031 236.316406 C 356.503906 235.527344 357.027344 234.730469 357.53125 233.917969 C 358.035156 233.105469 358.515625 232.277344 358.976562 231.441406 C 359.4375 230.605469 359.878906 229.753906 360.296875 228.894531 C 360.714844 228.035156 361.113281 227.167969 361.484375 226.285156 C 361.859375 225.40625 362.210938 224.515625 362.539062 223.621094 C 362.867188 222.722656 363.171875 221.816406 363.457031 220.902344 C 363.738281 219.988281 363.996094 219.070312 364.234375 218.140625 C 364.46875 217.214844 364.679688 216.285156 364.867188 215.347656 C 365.054688 214.410156 365.21875 213.46875 365.359375 212.519531 C 365.5 211.574219 365.617188 210.625 365.707031 209.675781 C 365.800781 208.722656 365.867188 207.769531 365.910156 206.816406 C 365.953125 205.859375 365.972656 204.902344 365.964844 203.949219 C 365.960938 202.992188 365.929688 202.035156 365.875 201.082031 C 365.820312 200.128906 365.742188 199.175781 365.636719 198.222656 C 365.535156 197.273438 365.40625 196.324219 365.257812 195.382812 C 365.105469 194.4375 364.929688 193.5 364.730469 192.5625 C 364.53125 191.628906 364.308594 190.699219 364.0625 189.773438 C 363.816406 188.851562 363.546875 187.933594 363.25 187.023438 C 362.957031 186.113281 362.640625 185.210938 362.300781 184.320312 C 361.960938 183.425781 361.601562 182.539062 361.214844 181.664062 C 360.832031 180.789062 360.425781 179.925781 359.996094 179.070312 C 359.566406 178.214844 359.117188 177.371094 358.644531 176.539062 C 358.175781 175.707031 357.683594 174.890625 357.167969 174.082031 C 356.65625 173.277344 356.121094 172.484375 355.566406 171.703125 C 355.015625 170.925781 354.441406 170.160156 353.847656 169.410156 C 353.253906 168.660156 352.644531 167.925781 352.011719 167.207031 C 351.382812 166.488281 350.734375 165.785156 350.070312 165.097656 C 349.402344 164.414062 348.71875 163.742188 348.019531 163.09375 C 347.320312 162.441406 346.601562 161.808594 345.871094 161.195312 C 345.136719 160.578125 344.390625 159.984375 343.628906 159.40625 C 342.863281 158.832031 342.085938 158.273438 341.296875 157.738281 C 340.503906 157.199219 339.699219 156.683594 338.882812 156.1875 C 338.066406 155.691406 337.234375 155.21875 336.394531 154.765625 C 335.550781 154.3125 334.699219 153.878906 333.835938 153.46875 C 332.972656 153.058594 332.097656 152.671875 331.214844 152.308594 C 330.332031 151.941406 329.4375 151.597656 328.539062 151.277344 C 327.636719 150.957031 326.726562 150.660156 325.8125 150.386719 C 324.894531 150.113281 323.972656 149.863281 323.042969 149.636719 C 322.117188 149.410156 321.179688 149.207031 320.242188 149.03125 C 319.304688 148.851562 318.359375 148.695312 317.414062 148.566406 C 316.464844 148.433594 315.515625 148.328125 314.5625 148.246094 C 313.609375 148.164062 312.65625 148.105469 311.699219 148.070312 C 310.746094 148.035156 309.789062 148.027344 308.832031 148.042969 C 307.878906 148.058594 306.921875 148.097656 305.96875 148.160156 C 305.015625 148.222656 304.0625 148.3125 303.113281 148.425781 C 303.59375 146.417969 303.925781 144.386719 304.109375 142.332031 C 304.292969 140.277344 304.328125 138.222656 304.207031 136.164062 C 304.089844 134.101562 303.824219 132.0625 303.40625 130.042969 C 302.988281 128.023438 302.425781 126.042969 301.71875 124.105469 C 301.011719 122.167969 300.167969 120.292969 299.183594 118.480469 C 298.203125 116.664062 297.09375 114.933594 295.859375 113.28125 C 294.621094 111.628906 293.273438 110.078125 291.808594 108.625 C 290.34375 107.171875 288.78125 105.832031 287.121094 104.605469 C 285.460938 103.382812 283.722656 102.285156 281.898438 101.316406 C 280.078125 100.347656 278.199219 99.515625 276.253906 98.824219 C 274.3125 98.128906 272.328125 97.582031 270.304688 97.179688 C 268.28125 96.777344 266.242188 96.523438 264.179688 96.417969 C 262.121094 96.316406 260.0625 96.363281 258.011719 96.5625 C 255.957031 96.761719 253.929688 97.105469 251.925781 97.601562 C 249.925781 98.097656 247.96875 98.738281 246.0625 99.519531 C 244.152344 100.300781 242.308594 101.21875 240.535156 102.269531 C 240.324219 100.964844 240.082031 99.660156 239.808594 98.367188 C 239.53125 97.070312 239.226562 95.78125 238.886719 94.503906 C 238.546875 93.222656 238.179688 91.953125 237.777344 90.691406 C 237.375 89.429688 236.941406 88.175781 236.476562 86.9375 C 236.011719 85.695312 235.519531 84.46875 234.996094 83.25 C 234.46875 82.035156 233.914062 80.832031 233.332031 79.644531 C 232.746094 78.457031 232.132812 77.285156 231.492188 76.125 C 230.847656 74.96875 230.175781 73.828125 229.476562 72.703125 C 228.777344 71.578125 228.050781 70.46875 227.296875 69.382812 C 226.542969 68.292969 225.761719 67.222656 224.957031 66.171875 C 224.148438 65.121094 223.316406 64.09375 222.460938 63.085938 C 221.601562 62.074219 220.71875 61.089844 219.8125 60.125 C 218.90625 59.160156 217.972656 58.21875 217.019531 57.296875 C 216.066406 56.378906 215.089844 55.484375 214.09375 54.613281 C 213.09375 53.742188 212.078125 52.898438 211.035156 52.078125 C 209.996094 51.257812 208.9375 50.464844 207.859375 49.695312 C 206.777344 48.929688 205.679688 48.191406 204.566406 47.476562 C 203.449219 46.761719 202.316406 46.078125 201.164062 45.421875 C 200.015625 44.765625 198.851562 44.136719 197.667969 43.539062 C 196.488281 42.9375 195.292969 42.367188 194.082031 41.828125 C 192.875 41.289062 191.652344 40.78125 190.417969 40.300781 C 189.183594 39.820312 187.9375 39.371094 186.679688 38.953125 C 185.425781 38.539062 184.15625 38.152344 182.882812 37.796875 C 181.605469 37.441406 180.320312 37.117188 179.03125 36.828125 C 177.738281 36.535156 176.441406 36.277344 175.136719 36.050781 C 173.832031 35.824219 172.519531 35.628906 171.207031 35.46875 C 169.890625 35.304688 168.574219 35.175781 167.253906 35.082031 C 165.933594 34.984375 164.609375 34.921875 163.285156 34.890625 C 161.960938 34.859375 160.640625 34.859375 159.316406 34.894531 C 157.992188 34.929688 156.667969 34.996094 155.347656 35.097656 C 154.027344 35.199219 152.710938 35.332031 151.398438 35.496094 C 150.082031 35.660156 148.773438 35.859375 147.46875 36.089844 C 146.164062 36.320312 144.867188 36.582031 143.578125 36.878906 C 142.285156 37.171875 141.003906 37.5 139.726562 37.859375 C 138.453125 38.214844 137.1875 38.605469 135.933594 39.027344 C 134.675781 39.449219 133.433594 39.898438 132.199219 40.382812 C 130.964844 40.867188 129.746094 41.378906 128.539062 41.921875 C 127.328125 42.464844 126.136719 43.039062 124.957031 43.640625 C 123.777344 44.242188 122.613281 44.875 121.464844 45.535156 C 120.316406 46.195312 119.1875 46.882812 118.074219 47.597656 C 116.957031 48.316406 115.863281 49.058594 114.785156 49.828125 C 113.710938 50.601562 112.652344 51.398438 111.613281 52.21875 C 110.578125 53.042969 109.558594 53.890625 108.5625 54.765625 C 107.570312 55.636719 106.59375 56.535156 105.644531 57.457031 C 104.695312 58.378906 103.765625 59.324219 102.863281 60.289062 C 101.957031 61.257812 101.078125 62.246094 100.222656 63.257812 C 99.367188 64.269531 98.539062 65.300781 97.734375 66.355469 C 96.929688 67.40625 96.152344 68.476562 95.402344 69.570312 C 94.652344 70.660156 93.925781 71.769531 93.230469 72.894531 C 92.535156 74.023438 91.867188 75.164062 91.226562 76.324219 C 90.589844 77.484375 89.980469 78.660156 89.398438 79.847656 C 88.816406 81.039062 88.265625 82.242188 87.746094 83.460938 C 87.222656 84.679688 86.734375 85.90625 86.273438 87.148438 C 85.8125 88.390625 85.382812 89.644531 84.984375 90.90625 C 84.585938 92.167969 84.21875 93.441406 83.882812 94.722656 C 83.546875 96.003906 83.246094 97.292969 82.972656 98.589844 C 82.703125 99.886719 82.464844 101.1875 82.257812 102.496094 C 82.050781 103.804688 81.875 105.117188 81.734375 106.433594 C 81.59375 107.75 81.484375 109.070312 81.40625 110.390625 C 81.332031 111.714844 81.289062 113.035156 81.277344 114.359375 C 81.265625 115.683594 81.289062 117.007812 81.34375 118.332031 C 81.398438 119.65625 81.484375 120.976562 81.605469 122.292969 C 81.726562 123.613281 81.878906 124.929688 82.066406 126.238281 C 82.25 127.550781 82.46875 128.855469 82.71875 130.15625 C 81.617188 130.027344 80.507812 129.921875 79.402344 129.847656 C 78.292969 129.773438 77.183594 129.726562 76.070312 129.707031 C 74.960938 129.6875 73.851562 129.699219 72.738281 129.734375 C 71.628906 129.773438 70.519531 129.839844 69.414062 129.933594 C 68.304688 130.027344 67.203125 130.152344 66.101562 130.300781 C 65 130.453125 63.90625 130.632812 62.8125 130.835938 C 61.722656 131.042969 60.636719 131.277344 59.554688 131.539062 C 58.476562 131.800781 57.402344 132.089844 56.339844 132.40625 C 55.273438 132.722656 54.21875 133.066406 53.167969 133.4375 C 52.121094 133.808594 51.085938 134.207031 50.058594 134.628906 C 49.03125 135.050781 48.015625 135.5 47.007812 135.976562 C 46.003906 136.449219 45.011719 136.949219 44.035156 137.476562 C 43.054688 138 42.089844 138.550781 41.140625 139.125 C 40.1875 139.703125 39.253906 140.300781 38.332031 140.921875 C 37.410156 141.542969 36.507812 142.191406 35.621094 142.859375 C 34.734375 143.527344 33.863281 144.21875 33.011719 144.929688 C 32.15625 145.640625 31.324219 146.375 30.507812 147.132812 C 29.695312 147.886719 28.898438 148.664062 28.125 149.457031 C 27.347656 150.253906 26.59375 151.070312 25.859375 151.902344 C 25.125 152.738281 24.414062 153.589844 23.722656 154.460938 C 23.03125 155.328125 22.363281 156.21875 21.71875 157.121094 C 21.074219 158.027344 20.453125 158.945312 19.851562 159.882812 C 19.253906 160.820312 18.679688 161.769531 18.128906 162.734375 C 17.582031 163.699219 17.054688 164.679688 16.554688 165.671875 C 16.054688 166.664062 15.582031 167.667969 15.132812 168.683594 C 14.683594 169.699219 14.261719 170.726562 13.863281 171.765625 C 13.46875 172.804688 13.097656 173.851562 12.753906 174.90625 C 12.410156 175.964844 12.09375 177.03125 11.804688 178.101562 C 11.515625 179.175781 11.253906 180.253906 11.019531 181.339844 C 10.785156 182.425781 10.582031 183.519531 10.402344 184.613281 C 10.222656 185.710938 10.074219 186.8125 9.953125 187.917969 C 9.828125 189.019531 9.734375 190.128906 9.667969 191.238281 C 9.601562 192.347656 9.566406 193.457031 9.554688 194.566406 C 9.546875 195.679688 9.566406 196.789062 9.613281 197.898438 C 9.660156 199.007812 9.734375 200.117188 9.839844 201.222656 C 9.941406 202.328125 10.074219 203.433594 10.234375 204.53125 C 10.394531 205.632812 10.582031 206.726562 10.796875 207.816406 C 11.015625 208.90625 11.257812 209.988281 11.527344 211.066406 C 11.796875 212.144531 12.097656 213.214844 12.421875 214.277344 C 12.746094 215.339844 13.101562 216.394531 13.480469 217.4375 C 13.859375 218.480469 14.261719 219.515625 14.695312 220.539062 C 15.128906 221.5625 15.585938 222.574219 16.066406 223.578125 C 16.550781 224.578125 17.058594 225.5625 17.59375 226.539062 C 18.125 227.511719 18.683594 228.472656 19.269531 229.417969 C 19.851562 230.367188 20.457031 231.296875 21.085938 232.210938 C 21.714844 233.128906 22.371094 234.027344 23.046875 234.90625 C 23.722656 235.789062 24.417969 236.652344 25.136719 237.5 C 25.859375 238.347656 26.597656 239.175781 27.359375 239.984375 C 28.125 240.792969 28.90625 241.578125 29.707031 242.347656 C 30.507812 243.117188 31.332031 243.867188 32.171875 244.59375 C 33.011719 245.320312 33.871094 246.023438 34.746094 246.707031 C 35.621094 247.390625 36.515625 248.050781 37.425781 248.6875 C 38.335938 249.328125 39.261719 249.941406 40.199219 250.53125 C 41.140625 251.121094 42.097656 251.6875 43.066406 252.230469 C 44.039062 252.773438 45.019531 253.289062 46.015625 253.78125 C 47.011719 254.273438 48.023438 254.738281 49.042969 255.179688 C 50.0625 255.621094 51.09375 256.035156 52.132812 256.421875 C 53.175781 256.808594 54.226562 257.171875 55.285156 257.503906 C 56.34375 257.839844 57.410156 258.148438 58.488281 258.425781 C 59.5625 258.707031 60.644531 258.960938 61.730469 259.183594 C 62.820312 259.410156 63.914062 259.605469 65.011719 259.777344 C 66.109375 259.945312 67.210938 260.085938 68.316406 260.199219 C 69.421875 260.3125 70.53125 260.398438 71.640625 260.453125 C 72.75 260.511719 73.859375 260.539062 74.96875 260.539062 Z M 309.511719 260.539062 " fill-opacity="1" fill-rule="nonzero"/><path fill="#409ac7" d="M 138.503906 178.363281 C 138.167969 178.480469 137.824219 178.566406 137.472656 178.617188 C 137.121094 178.667969 136.765625 178.683594 136.410156 178.664062 C 136.058594 178.644531 135.707031 178.59375 135.363281 178.503906 C 135.015625 178.417969 134.683594 178.296875 134.363281 178.140625 C 134.042969 177.988281 133.738281 177.804688 133.453125 177.59375 C 133.167969 177.378906 132.910156 177.140625 132.671875 176.878906 C 132.433594 176.613281 132.222656 176.328125 132.039062 176.023438 C 131.859375 175.714844 131.707031 175.394531 131.589844 175.058594 C 130.652344 172.4375 129.539062 169.894531 128.25 167.425781 C 126.960938 164.960938 125.503906 162.59375 123.886719 160.324219 C 122.269531 158.058594 120.503906 155.914062 118.589844 153.894531 C 116.675781 151.871094 114.632812 149.992188 112.457031 148.253906 C 110.285156 146.511719 108 144.933594 105.609375 143.511719 C 103.214844 142.085938 100.734375 140.835938 98.167969 139.757812 C 95.601562 138.675781 92.972656 137.777344 90.28125 137.0625 C 87.59375 136.347656 84.863281 135.820312 82.101562 135.484375 C 81.757812 135.445312 81.421875 135.371094 81.089844 135.269531 C 80.761719 135.164062 80.445312 135.03125 80.140625 134.867188 C 79.835938 134.703125 79.550781 134.507812 79.285156 134.289062 C 79.019531 134.070312 78.773438 133.828125 78.554688 133.558594 C 78.335938 133.292969 78.144531 133.007812 77.976562 132.703125 C 77.8125 132.398438 77.679688 132.082031 77.574219 131.753906 C 77.472656 131.421875 77.402344 131.085938 77.363281 130.742188 C 77.324219 130.398438 77.320312 130.054688 77.347656 129.710938 C 79.136719 129.769531 80.960938 129.957031 82.71875 130.171875 C 82.378906 128.414062 82.101562 126.621094 81.886719 124.800781 C 82.375 124.703125 82.871094 124.683594 83.367188 124.738281 C 86.628906 125.140625 89.847656 125.765625 93.019531 126.613281 C 96.195312 127.457031 99.296875 128.519531 102.324219 129.792969 C 105.351562 131.070312 108.277344 132.546875 111.101562 134.226562 C 113.925781 135.90625 116.621094 137.769531 119.1875 139.824219 C 121.753906 141.875 124.164062 144.09375 126.425781 146.480469 C 128.683594 148.863281 130.769531 151.394531 132.675781 154.066406 C 134.585938 156.742188 136.304688 159.53125 137.828125 162.445312 C 139.351562 165.355469 140.667969 168.355469 141.777344 171.449219 C 141.894531 171.78125 141.980469 172.125 142.03125 172.476562 C 142.082031 172.828125 142.097656 173.179688 142.078125 173.535156 C 142.0625 173.890625 142.007812 174.238281 141.921875 174.582031 C 141.835938 174.925781 141.714844 175.257812 141.5625 175.578125 C 141.414062 175.902344 141.230469 176.203125 141.019531 176.488281 C 140.808594 176.773438 140.570312 177.035156 140.308594 177.273438 C 140.046875 177.511719 139.765625 177.722656 139.460938 177.90625 C 139.15625 178.089844 138.839844 178.242188 138.503906 178.363281 Z M 138.503906 178.363281 " fill-opacity="1" fill-rule="nonzero"/><path fill="#409ac7" d="M 174.617188 72.179688 C 174.132812 72.183594 173.65625 72.121094 173.1875 71.996094 C 168.542969 70.730469 163.8125 70.226562 159.003906 70.484375 C 158.648438 70.503906 158.296875 70.488281 157.945312 70.4375 C 157.59375 70.386719 157.25 70.304688 156.914062 70.183594 C 156.578125 70.066406 156.257812 69.917969 155.953125 69.738281 C 155.648438 69.554688 155.363281 69.347656 155.097656 69.109375 C 154.832031 68.871094 154.59375 68.609375 154.382812 68.328125 C 154.167969 68.042969 153.984375 67.738281 153.832031 67.417969 C 153.679688 67.097656 153.558594 66.765625 153.46875 66.421875 C 153.382812 66.078125 153.328125 65.730469 153.308594 65.375 C 153.289062 65.019531 153.304688 64.667969 153.355469 64.316406 C 153.40625 63.964844 153.492188 63.621094 153.609375 63.285156 C 153.726562 62.949219 153.875 62.628906 154.058594 62.324219 C 154.238281 62.019531 154.449219 61.734375 154.683594 61.46875 C 154.921875 61.203125 155.183594 60.964844 155.46875 60.753906 C 155.75 60.539062 156.054688 60.355469 156.375 60.203125 C 156.695312 60.050781 157.027344 59.929688 157.371094 59.839844 C 157.714844 59.753906 158.066406 59.699219 158.417969 59.679688 C 164.394531 59.363281 170.269531 59.988281 176.042969 61.558594 C 176.671875 61.734375 177.253906 62.011719 177.78125 62.394531 C 178.3125 62.777344 178.757812 63.242188 179.121094 63.785156 C 179.480469 64.332031 179.734375 64.921875 179.882812 65.5625 C 180.027344 66.199219 180.058594 66.839844 179.972656 67.488281 C 179.882812 68.136719 179.6875 68.75 179.375 69.324219 C 179.066406 69.902344 178.667969 70.40625 178.175781 70.835938 C 177.683594 71.265625 177.128906 71.597656 176.519531 71.828125 C 175.90625 72.058594 175.273438 72.171875 174.617188 72.171875 Z M 174.617188 72.179688 " fill-opacity="1" fill-rule="nonzero"/><path fill="#409ac7" d="M 111.457031 120.359375 C 111.101562 120.359375 110.75 120.324219 110.402344 120.253906 C 110.054688 120.183594 109.71875 120.082031 109.390625 119.945312 C 109.0625 119.8125 108.75 119.644531 108.457031 119.445312 C 108.160156 119.25 107.890625 119.027344 107.636719 118.773438 C 107.386719 118.523438 107.164062 118.25 106.964844 117.957031 C 106.769531 117.660156 106.601562 117.351562 106.46875 117.023438 C 106.332031 116.695312 106.230469 116.359375 106.160156 116.011719 C 106.089844 115.660156 106.054688 115.3125 106.054688 114.957031 C 106.058594 112.542969 106.222656 110.140625 106.539062 107.75 C 106.859375 105.355469 107.328125 102.996094 107.953125 100.667969 C 108.582031 98.335938 109.355469 96.054688 110.277344 93.828125 C 111.199219 91.597656 112.261719 89.4375 113.464844 87.347656 C 114.671875 85.253906 116.003906 83.25 117.46875 81.332031 C 118.933594 79.417969 120.519531 77.601562 122.21875 75.890625 C 123.921875 74.179688 125.726562 72.585938 127.632812 71.109375 C 129.542969 69.636719 131.539062 68.289062 133.625 67.074219 C 133.929688 66.894531 134.25 66.75 134.585938 66.632812 C 134.921875 66.519531 135.265625 66.4375 135.617188 66.390625 C 135.96875 66.34375 136.320312 66.332031 136.675781 66.351562 C 137.03125 66.375 137.378906 66.429688 137.722656 66.523438 C 138.066406 66.613281 138.394531 66.734375 138.714844 66.890625 C 139.03125 67.046875 139.332031 67.234375 139.613281 67.449219 C 139.898438 67.664062 140.15625 67.90625 140.390625 68.171875 C 140.625 68.4375 140.832031 68.722656 141.007812 69.03125 C 141.1875 69.335938 141.335938 69.65625 141.449219 69.992188 C 141.566406 70.328125 141.644531 70.671875 141.691406 71.023438 C 141.742188 71.375 141.753906 71.726562 141.730469 72.082031 C 141.707031 72.4375 141.652344 72.785156 141.5625 73.128906 C 141.472656 73.46875 141.347656 73.800781 141.191406 74.121094 C 141.035156 74.4375 140.851562 74.738281 140.632812 75.019531 C 140.417969 75.304688 140.179688 75.5625 139.914062 75.796875 C 139.648438 76.03125 139.359375 76.238281 139.054688 76.414062 C 137.375 77.394531 135.769531 78.476562 134.234375 79.664062 C 132.695312 80.851562 131.242188 82.136719 129.875 83.511719 C 128.503906 84.890625 127.230469 86.351562 126.050781 87.894531 C 124.871094 89.4375 123.796875 91.050781 122.828125 92.730469 C 121.859375 94.414062 121.003906 96.152344 120.261719 97.949219 C 119.519531 99.742188 118.894531 101.578125 118.390625 103.453125 C 117.886719 105.328125 117.507812 107.230469 117.25 109.15625 C 116.996094 111.082031 116.863281 113.015625 116.859375 114.957031 C 116.859375 115.3125 116.824219 115.660156 116.753906 116.011719 C 116.6875 116.359375 116.582031 116.695312 116.449219 117.023438 C 116.3125 117.351562 116.144531 117.660156 115.949219 117.957031 C 115.75 118.25 115.527344 118.523438 115.277344 118.773438 C 115.027344 119.027344 114.753906 119.25 114.457031 119.445312 C 114.164062 119.644531 113.851562 119.8125 113.523438 119.945312 C 113.195312 120.082031 112.859375 120.183594 112.511719 120.253906 C 112.164062 120.324219 111.8125 120.359375 111.457031 120.359375 Z M 111.457031 120.359375 " fill-opacity="1" fill-rule="nonzero"/><path fill="#409ac7" d="M 335.570312 209.6875 C 335.214844 209.6875 334.863281 209.652344 334.515625 209.582031 C 334.167969 209.511719 333.828125 209.410156 333.5 209.273438 C 333.175781 209.140625 332.863281 208.972656 332.566406 208.777344 C 332.273438 208.578125 332 208.355469 331.75 208.105469 C 331.5 207.851562 331.273438 207.582031 331.078125 207.285156 C 330.878906 206.992188 330.714844 206.679688 330.578125 206.351562 C 330.441406 206.023438 330.339844 205.6875 330.269531 205.335938 C 330.199219 204.988281 330.167969 204.636719 330.167969 204.285156 C 330.164062 203.609375 330.132812 202.933594 330.0625 202.261719 C 329.996094 201.589844 329.898438 200.921875 329.765625 200.257812 C 329.632812 199.59375 329.464844 198.9375 329.269531 198.292969 C 329.074219 197.644531 328.84375 197.011719 328.585938 196.386719 C 328.324219 195.761719 328.035156 195.152344 327.71875 194.554688 C 327.398438 193.960938 327.050781 193.378906 326.675781 192.816406 C 326.300781 192.257812 325.898438 191.714844 325.46875 191.191406 C 325.039062 190.667969 324.585938 190.167969 324.105469 189.691406 C 323.628906 189.210938 323.128906 188.757812 322.605469 188.332031 C 322.082031 187.902344 321.542969 187.5 320.980469 187.125 C 320.417969 186.746094 319.839844 186.398438 319.242188 186.082031 C 318.644531 185.761719 318.035156 185.472656 317.410156 185.214844 C 316.785156 184.953125 316.152344 184.726562 315.503906 184.53125 C 314.859375 184.332031 314.203125 184.167969 313.539062 184.035156 C 312.878906 183.902344 312.210938 183.804688 311.535156 183.734375 C 310.863281 183.667969 310.1875 183.632812 309.511719 183.632812 C 307.238281 183.625 305.027344 183.984375 302.875 184.714844 C 300.722656 185.445312 298.746094 186.503906 296.945312 187.894531 C 296.664062 188.109375 296.363281 188.296875 296.046875 188.453125 C 295.726562 188.609375 295.398438 188.734375 295.054688 188.828125 C 294.710938 188.921875 294.363281 188.976562 294.011719 189 C 293.65625 189.023438 293.304688 189.011719 292.953125 188.96875 C 292.601562 188.921875 292.257812 188.839844 291.921875 188.726562 C 291.585938 188.613281 291.261719 188.46875 290.957031 188.292969 C 290.648438 188.113281 290.359375 187.910156 290.09375 187.675781 C 289.828125 187.441406 289.585938 187.183594 289.371094 186.902344 C 289.152344 186.621094 288.964844 186.320312 288.808594 186.003906 C 288.652344 185.6875 288.527344 185.355469 288.433594 185.011719 C 288.34375 184.671875 288.285156 184.324219 288.261719 183.96875 C 288.238281 183.613281 288.25 183.261719 288.296875 182.910156 C 288.339844 182.558594 288.421875 182.214844 288.535156 181.878906 C 288.648438 181.542969 288.792969 181.21875 288.972656 180.914062 C 289.148438 180.605469 289.355469 180.320312 289.585938 180.050781 C 289.820312 179.785156 290.078125 179.542969 290.359375 179.328125 C 291.519531 178.4375 292.734375 177.632812 294.003906 176.914062 C 295.277344 176.195312 296.589844 175.566406 297.949219 175.027344 C 299.308594 174.492188 300.699219 174.050781 302.117188 173.707031 C 303.539062 173.367188 304.972656 173.121094 306.425781 172.980469 C 307.882812 172.835938 309.339844 172.792969 310.796875 172.855469 C 312.257812 172.914062 313.707031 173.074219 315.140625 173.335938 C 316.578125 173.597656 317.992188 173.957031 319.378906 174.414062 C 320.765625 174.875 322.113281 175.425781 323.425781 176.070312 C 324.734375 176.71875 325.992188 177.453125 327.203125 178.273438 C 328.410156 179.09375 329.554688 179.996094 330.636719 180.976562 C 331.71875 181.957031 332.726562 183.007812 333.664062 184.128906 C 334.601562 185.25 335.453125 186.433594 336.226562 187.671875 C 336.996094 188.914062 337.679688 190.199219 338.269531 191.535156 C 338.863281 192.871094 339.359375 194.242188 339.761719 195.644531 C 340.164062 197.050781 340.464844 198.476562 340.667969 199.921875 C 340.871094 201.371094 340.972656 202.824219 340.972656 204.285156 C 340.972656 204.636719 340.9375 204.988281 340.867188 205.335938 C 340.796875 205.683594 340.695312 206.023438 340.558594 206.351562 C 340.421875 206.679688 340.257812 206.988281 340.058594 207.285156 C 339.863281 207.578125 339.640625 207.851562 339.386719 208.101562 C 339.136719 208.355469 338.863281 208.578125 338.570312 208.773438 C 338.273438 208.972656 337.964844 209.136719 337.636719 209.273438 C 337.308594 209.410156 336.972656 209.511719 336.621094 209.582031 C 336.273438 209.652344 335.921875 209.6875 335.570312 209.6875 Z M 335.570312 209.6875 " fill-opacity="1" fill-rule="nonzero"/><path fill="#409ac7" d="M 243.253906 106.863281 C 241.199219 108.089844 239.277344 109.503906 237.492188 111.097656 C 235.710938 112.695312 234.09375 114.445312 232.648438 116.355469 C 231.199219 118.261719 229.949219 120.289062 228.890625 122.4375 C 227.835938 124.585938 226.992188 126.8125 226.367188 129.125 C 226.214844 129.699219 225.976562 130.238281 225.648438 130.734375 C 225.316406 131.230469 224.917969 131.660156 224.445312 132.023438 C 223.972656 132.386719 223.453125 132.664062 222.890625 132.855469 C 222.324219 133.042969 221.746094 133.140625 221.148438 133.136719 C 220.675781 133.152344 220.210938 133.089844 219.757812 132.953125 C 219.417969 132.859375 219.085938 132.738281 218.765625 132.582031 C 218.445312 132.425781 218.148438 132.242188 217.863281 132.027344 C 217.582031 131.8125 217.324219 131.570312 217.089844 131.304688 C 216.855469 131.039062 216.648438 130.75 216.46875 130.445312 C 216.292969 130.136719 216.144531 129.816406 216.03125 129.480469 C 215.917969 129.144531 215.835938 128.800781 215.792969 128.449219 C 215.746094 128.097656 215.734375 127.742188 215.757812 127.390625 C 215.78125 127.035156 215.839844 126.6875 215.929688 126.34375 C 216.738281 123.359375 217.828125 120.476562 219.191406 117.699219 C 220.554688 114.921875 222.175781 112.300781 224.042969 109.835938 C 225.914062 107.367188 228.003906 105.105469 230.308594 103.042969 C 232.617188 100.980469 235.097656 99.15625 237.757812 97.570312 C 238.300781 97.269531 238.878906 97.054688 239.488281 96.921875 C 239.886719 98.683594 240.257812 100.472656 240.535156 102.265625 C 242.085938 101.339844 243.691406 100.527344 245.351562 99.824219 C 245.503906 100.128906 245.625 100.441406 245.71875 100.765625 C 245.808594 101.09375 245.871094 101.421875 245.898438 101.761719 C 245.929688 102.097656 245.925781 102.433594 245.894531 102.769531 C 245.859375 103.105469 245.792969 103.4375 245.695312 103.761719 C 245.601562 104.085938 245.472656 104.398438 245.316406 104.695312 C 245.164062 104.996094 244.980469 105.28125 244.769531 105.546875 C 244.5625 105.8125 244.328125 106.054688 244.074219 106.277344 C 243.820312 106.5 243.546875 106.695312 243.253906 106.863281 Z M 243.253906 106.863281 " fill-opacity="1" fill-rule="nonzero"/><path fill="#f9ce49" d="M 73.40625 285.246094 C 72.871094 285.246094 72.347656 285.167969 71.835938 285.011719 C 71.324219 284.855469 70.847656 284.628906 70.402344 284.332031 C 69.960938 284.035156 69.570312 283.683594 69.230469 283.269531 C 68.890625 282.855469 68.621094 282.402344 68.414062 281.910156 C 68.210938 281.414062 68.082031 280.902344 68.03125 280.371094 C 67.976562 279.839844 68.003906 279.3125 68.105469 278.789062 C 68.210938 278.265625 68.386719 277.765625 68.640625 277.296875 C 68.890625 276.824219 69.207031 276.398438 69.582031 276.019531 L 77.351562 268.253906 C 84.296875 261.324219 91.953125 255.296875 100.320312 250.171875 C 108.6875 245.050781 117.535156 240.96875 126.863281 237.929688 C 127.199219 237.816406 127.546875 237.738281 127.902344 237.691406 C 128.257812 237.648438 128.613281 237.636719 128.96875 237.664062 C 129.324219 237.6875 129.675781 237.75 130.019531 237.84375 C 130.363281 237.9375 130.695312 238.066406 131.011719 238.226562 C 131.332031 238.386719 131.632812 238.578125 131.914062 238.796875 C 132.195312 239.019531 132.453125 239.265625 132.683594 239.535156 C 132.917969 239.804688 133.121094 240.097656 133.296875 240.410156 C 133.46875 240.71875 133.613281 241.046875 133.722656 241.386719 C 133.832031 241.726562 133.910156 242.070312 133.949219 242.425781 C 133.992188 242.78125 133.996094 243.136719 133.96875 243.492188 C 133.9375 243.847656 133.875 244.199219 133.777344 244.542969 C 133.679688 244.886719 133.546875 245.214844 133.382812 245.53125 C 133.21875 245.851562 133.027344 246.148438 132.804688 246.425781 C 132.578125 246.707031 132.332031 246.960938 132.058594 247.191406 C 131.785156 247.417969 131.492188 247.621094 131.179688 247.792969 C 130.863281 247.960938 130.539062 248.101562 130.195312 248.207031 C 121.679688 250.980469 113.601562 254.707031 105.960938 259.386719 C 98.320312 264.0625 91.332031 269.566406 84.992188 275.894531 L 77.222656 283.660156 C 76.71875 284.167969 76.132812 284.558594 75.472656 284.835938 C 74.8125 285.109375 74.121094 285.246094 73.40625 285.246094 Z M 73.40625 285.246094 " fill-opacity="1" fill-rule="nonzero"/><path fill="#f9ce49" d="M 150.296875 243.613281 C 149.957031 243.613281 149.617188 243.582031 149.28125 243.519531 C 148.949219 243.453125 148.621094 243.359375 148.304688 243.234375 C 147.988281 243.109375 147.683594 242.957031 147.394531 242.773438 C 147.105469 242.589844 146.839844 242.382812 146.589844 242.152344 C 146.339844 241.917969 146.117188 241.664062 145.914062 241.386719 C 145.714844 241.109375 145.542969 240.820312 145.398438 240.507812 C 145.25 240.199219 145.136719 239.882812 145.050781 239.550781 C 144.96875 239.21875 144.914062 238.886719 144.894531 238.542969 C 144.871094 238.203125 144.882812 237.863281 144.925781 237.527344 C 144.96875 237.1875 145.042969 236.855469 145.148438 236.53125 C 145.253906 236.207031 145.390625 235.894531 145.554688 235.597656 C 145.71875 235.300781 145.910156 235.019531 146.128906 234.757812 C 146.347656 234.492188 146.589844 234.253906 146.851562 234.039062 C 147.117188 233.820312 147.398438 233.628906 147.695312 233.46875 C 147.996094 233.304688 148.308594 233.167969 148.632812 233.066406 C 148.957031 232.960938 149.289062 232.886719 149.628906 232.847656 C 154.792969 232.195312 159.980469 231.871094 165.191406 231.871094 L 198.363281 231.871094 C 198.980469 231.871094 199.59375 231.839844 200.207031 231.78125 C 200.820312 231.71875 201.425781 231.628906 202.03125 231.511719 C 202.632812 231.390625 203.230469 231.242188 203.816406 231.0625 C 204.40625 230.882812 204.984375 230.675781 205.554688 230.441406 C 206.121094 230.207031 206.675781 229.941406 207.21875 229.652344 C 207.761719 229.363281 208.289062 229.046875 208.800781 228.707031 C 209.3125 228.363281 209.804688 227.996094 210.28125 227.605469 C 210.757812 227.21875 211.214844 226.804688 211.648438 226.371094 C 212.082031 225.933594 212.496094 225.480469 212.886719 225.003906 C 213.277344 224.527344 213.640625 224.035156 213.984375 223.523438 C 214.328125 223.011719 214.640625 222.484375 214.933594 221.941406 C 215.222656 221.398438 215.484375 220.84375 215.71875 220.273438 C 215.957031 219.707031 216.164062 219.128906 216.339844 218.539062 C 216.519531 217.949219 216.667969 217.355469 216.789062 216.75 C 216.910156 216.148438 217 215.539062 217.058594 214.925781 C 217.121094 214.316406 217.152344 213.703125 217.152344 213.085938 C 217.152344 212.472656 217.121094 211.859375 217.058594 211.246094 C 217 210.632812 216.910156 210.023438 216.789062 209.421875 C 216.671875 208.816406 216.519531 208.222656 216.34375 207.632812 C 216.164062 207.042969 215.957031 206.464844 215.722656 205.898438 C 215.484375 205.328125 215.222656 204.773438 214.933594 204.230469 C 214.644531 203.6875 214.328125 203.160156 213.984375 202.648438 C 213.644531 202.136719 213.277344 201.644531 212.886719 201.167969 C 212.496094 200.695312 212.085938 200.238281 211.648438 199.804688 C 211.214844 199.367188 210.757812 198.957031 210.285156 198.566406 C 209.808594 198.175781 209.316406 197.808594 208.804688 197.464844 C 208.292969 197.125 207.765625 196.808594 207.222656 196.519531 C 206.679688 196.230469 206.125 195.964844 205.554688 195.730469 C 204.988281 195.496094 204.410156 195.289062 203.820312 195.109375 C 203.230469 194.929688 202.636719 194.78125 202.03125 194.660156 C 201.429688 194.542969 200.820312 194.449219 200.207031 194.390625 C 199.597656 194.332031 198.980469 194.300781 198.367188 194.300781 C 197.75 194.300781 197.136719 194.328125 196.527344 194.390625 C 195.914062 194.449219 195.304688 194.539062 194.703125 194.660156 C 194.097656 194.78125 193.503906 194.929688 192.914062 195.109375 C 192.324219 195.285156 191.746094 195.492188 191.179688 195.730469 C 190.609375 195.964844 190.054688 196.226562 189.511719 196.515625 C 188.96875 196.808594 188.441406 197.121094 187.929688 197.464844 C 187.417969 197.804688 186.925781 198.171875 186.449219 198.5625 C 185.972656 198.953125 185.519531 199.367188 185.082031 199.800781 C 184.648438 200.234375 184.234375 200.691406 183.84375 201.167969 C 183.453125 201.640625 183.089844 202.136719 182.746094 202.648438 C 182.40625 203.15625 182.089844 203.683594 181.800781 204.226562 C 181.507812 204.769531 181.246094 205.324219 181.011719 205.894531 C 180.773438 206.460938 180.566406 207.039062 180.390625 207.628906 C 180.210938 208.21875 180.0625 208.8125 179.941406 209.417969 C 179.820312 210.019531 179.730469 210.628906 179.671875 211.242188 C 179.609375 211.851562 179.578125 212.46875 179.578125 213.082031 C 179.578125 213.4375 179.542969 213.789062 179.476562 214.136719 C 179.40625 214.484375 179.304688 214.820312 179.167969 215.148438 C 179.03125 215.476562 178.867188 215.789062 178.667969 216.082031 C 178.472656 216.378906 178.246094 216.652344 177.996094 216.902344 C 177.746094 217.152344 177.472656 217.378906 177.179688 217.574219 C 176.882812 217.773438 176.570312 217.9375 176.246094 218.074219 C 175.917969 218.210938 175.578125 218.3125 175.230469 218.382812 C 174.882812 218.449219 174.53125 218.484375 174.175781 218.484375 C 173.820312 218.484375 173.472656 218.449219 173.121094 218.382812 C 172.773438 218.3125 172.4375 218.210938 172.109375 218.074219 C 171.78125 217.9375 171.46875 217.773438 171.175781 217.574219 C 170.878906 217.378906 170.609375 217.152344 170.355469 216.902344 C 170.105469 216.652344 169.882812 216.378906 169.683594 216.082031 C 169.488281 215.789062 169.320312 215.476562 169.1875 215.148438 C 169.050781 214.820312 168.949219 214.484375 168.878906 214.136719 C 168.808594 213.789062 168.773438 213.4375 168.773438 213.082031 C 168.773438 212.113281 168.820312 211.144531 168.917969 210.183594 C 169.011719 209.21875 169.152344 208.261719 169.34375 207.308594 C 169.53125 206.359375 169.765625 205.421875 170.046875 204.492188 C 170.328125 203.566406 170.65625 202.652344 171.027344 201.757812 C 171.398438 200.863281 171.8125 199.988281 172.269531 199.132812 C 172.726562 198.277344 173.222656 197.449219 173.761719 196.644531 C 174.300781 195.835938 174.875 195.058594 175.492188 194.308594 C 176.105469 193.5625 176.757812 192.84375 177.441406 192.160156 C 178.125 191.472656 178.84375 190.824219 179.59375 190.207031 C 180.34375 189.59375 181.121094 189.015625 181.925781 188.480469 C 182.730469 187.941406 183.5625 187.441406 184.417969 186.984375 C 185.269531 186.527344 186.144531 186.113281 187.042969 185.742188 C 187.9375 185.375 188.847656 185.046875 189.773438 184.765625 C 190.703125 184.484375 191.640625 184.25 192.59375 184.058594 C 193.542969 183.871094 194.5 183.730469 195.464844 183.632812 C 196.429688 183.539062 197.394531 183.492188 198.363281 183.492188 C 199.335938 183.492188 200.300781 183.539062 201.265625 183.632812 C 202.230469 183.730469 203.1875 183.871094 204.136719 184.058594 C 205.089844 184.25 206.027344 184.484375 206.953125 184.765625 C 207.882812 185.046875 208.792969 185.375 209.6875 185.742188 C 210.585938 186.113281 211.460938 186.527344 212.3125 186.984375 C 213.167969 187.441406 214 187.941406 214.804688 188.480469 C 215.609375 189.015625 216.386719 189.59375 217.136719 190.207031 C 217.886719 190.824219 218.605469 191.472656 219.289062 192.160156 C 219.972656 192.84375 220.625 193.5625 221.238281 194.308594 C 221.855469 195.058594 222.429688 195.835938 222.96875 196.644531 C 223.507812 197.449219 224.003906 198.277344 224.460938 199.132812 C 224.917969 199.988281 225.332031 200.863281 225.703125 201.757812 C 226.074219 202.652344 226.398438 203.566406 226.679688 204.492188 C 226.964844 205.421875 227.199219 206.359375 227.386719 207.308594 C 227.578125 208.261719 227.71875 209.21875 227.8125 210.183594 C 227.910156 211.144531 227.957031 212.113281 227.957031 213.082031 C 227.957031 214.050781 227.910156 215.019531 227.8125 215.984375 C 227.71875 216.945312 227.578125 217.90625 227.386719 218.855469 C 227.199219 219.804688 226.964844 220.746094 226.679688 221.671875 C 226.398438 222.597656 226.074219 223.511719 225.703125 224.40625 C 225.332031 225.300781 224.917969 226.175781 224.460938 227.03125 C 224.003906 227.886719 223.507812 228.714844 222.96875 229.523438 C 222.429688 230.328125 221.855469 231.105469 221.238281 231.855469 C 220.625 232.605469 219.972656 233.320312 219.289062 234.007812 C 218.605469 234.691406 217.886719 235.339844 217.136719 235.957031 C 216.386719 236.570312 215.609375 237.148438 214.804688 237.6875 C 214 238.222656 213.167969 238.722656 212.3125 239.179688 C 211.460938 239.636719 210.585938 240.050781 209.6875 240.421875 C 208.792969 240.792969 207.882812 241.117188 206.953125 241.398438 C 206.027344 241.679688 205.089844 241.914062 204.136719 242.105469 C 203.1875 242.292969 202.230469 242.4375 201.265625 242.53125 C 200.300781 242.625 199.335938 242.671875 198.363281 242.671875 L 165.191406 242.671875 C 160.4375 242.675781 155.703125 242.972656 150.988281 243.566406 C 150.757812 243.59375 150.527344 243.609375 150.296875 243.613281 Z M 150.296875 243.613281 " fill-opacity="1" fill-rule="nonzero"/><path fill="#f9ce49" d="M 198.363281 226.84375 C 197.460938 226.84375 196.566406 226.757812 195.679688 226.582031 C 194.792969 226.40625 193.933594 226.144531 193.097656 225.796875 C 192.265625 225.453125 191.472656 225.027344 190.71875 224.527344 C 189.96875 224.023438 189.273438 223.453125 188.636719 222.816406 C 187.996094 222.175781 187.425781 221.480469 186.925781 220.730469 C 186.421875 219.980469 186 219.1875 185.652344 218.351562 C 185.308594 217.515625 185.046875 216.65625 184.871094 215.769531 C 184.695312 214.882812 184.605469 213.988281 184.605469 213.085938 C 184.605469 212.183594 184.695312 211.289062 184.871094 210.402344 C 185.046875 209.515625 185.308594 208.65625 185.652344 207.820312 C 186 206.984375 186.421875 206.191406 186.925781 205.441406 C 187.425781 204.691406 187.996094 203.996094 188.636719 203.355469 C 189.273438 202.71875 189.96875 202.148438 190.71875 201.644531 C 191.472656 201.144531 192.265625 200.71875 193.097656 200.375 C 193.933594 200.027344 194.792969 199.765625 195.679688 199.589844 C 196.566406 199.414062 197.460938 199.324219 198.363281 199.324219 C 198.71875 199.324219 199.070312 199.359375 199.417969 199.429688 C 199.765625 199.5 200.105469 199.601562 200.433594 199.738281 C 200.761719 199.871094 201.070312 200.039062 201.367188 200.238281 C 201.660156 200.433594 201.933594 200.65625 202.183594 200.910156 C 202.4375 201.160156 202.660156 201.433594 202.855469 201.726562 C 203.054688 202.023438 203.21875 202.332031 203.355469 202.660156 C 203.492188 202.988281 203.59375 203.328125 203.664062 203.675781 C 203.734375 204.023438 203.769531 204.375 203.769531 204.726562 C 203.769531 205.082031 203.734375 205.433594 203.664062 205.78125 C 203.59375 206.128906 203.492188 206.46875 203.355469 206.796875 C 203.21875 207.125 203.054688 207.433594 202.855469 207.730469 C 202.660156 208.023438 202.4375 208.296875 202.183594 208.546875 C 201.933594 208.800781 201.660156 209.023438 201.367188 209.21875 C 201.070312 209.417969 200.761719 209.582031 200.433594 209.71875 C 200.105469 209.855469 199.765625 209.957031 199.417969 210.027344 C 199.070312 210.097656 198.71875 210.132812 198.363281 210.132812 C 197.972656 210.132812 197.597656 210.207031 197.234375 210.355469 C 196.871094 210.503906 196.554688 210.71875 196.277344 210.996094 C 196 211.273438 195.785156 211.59375 195.636719 211.953125 C 195.484375 212.316406 195.410156 212.695312 195.410156 213.085938 C 195.410156 213.476562 195.484375 213.855469 195.636719 214.214844 C 195.785156 214.578125 196 214.898438 196.277344 215.175781 C 196.554688 215.453125 196.871094 215.664062 197.234375 215.816406 C 197.597656 215.964844 197.972656 216.039062 198.363281 216.039062 C 198.71875 216.039062 199.070312 216.074219 199.417969 216.144531 C 199.765625 216.214844 200.105469 216.316406 200.433594 216.449219 C 200.761719 216.585938 201.070312 216.753906 201.367188 216.949219 C 201.660156 217.148438 201.933594 217.371094 202.183594 217.621094 C 202.4375 217.875 202.660156 218.144531 202.855469 218.441406 C 203.054688 218.734375 203.21875 219.046875 203.355469 219.375 C 203.492188 219.703125 203.59375 220.039062 203.664062 220.386719 C 203.734375 220.738281 203.769531 221.085938 203.769531 221.441406 C 203.769531 221.796875 203.734375 222.148438 203.664062 222.496094 C 203.59375 222.84375 203.492188 223.183594 203.355469 223.511719 C 203.21875 223.835938 203.054688 224.148438 202.855469 224.445312 C 202.660156 224.738281 202.4375 225.011719 202.183594 225.261719 C 201.933594 225.511719 201.660156 225.738281 201.367188 225.933594 C 201.070312 226.132812 200.761719 226.296875 200.433594 226.433594 C 200.105469 226.570312 199.765625 226.671875 199.417969 226.742188 C 199.070312 226.808594 198.71875 226.84375 198.363281 226.84375 Z M 198.363281 226.84375 " fill-opacity="1" fill-rule="nonzero"/><path fill="#f9ce49" d="M 73.40625 318.152344 C 72.871094 318.152344 72.347656 318.074219 71.835938 317.917969 C 71.324219 317.761719 70.847656 317.535156 70.402344 317.238281 C 69.960938 316.941406 69.570312 316.589844 69.230469 316.175781 C 68.890625 315.761719 68.621094 315.308594 68.414062 314.816406 C 68.210938 314.320312 68.082031 313.808594 68.03125 313.277344 C 67.976562 312.746094 68.003906 312.21875 68.105469 311.695312 C 68.210938 311.171875 68.386719 310.671875 68.640625 310.203125 C 68.890625 309.730469 69.207031 309.304688 69.582031 308.925781 L 83.035156 295.472656 C 83.289062 295.222656 83.558594 294.996094 83.855469 294.800781 C 84.152344 294.601562 84.460938 294.433594 84.789062 294.300781 C 85.117188 294.164062 85.457031 294.058594 85.804688 293.992188 C 86.152344 293.921875 86.503906 293.886719 86.859375 293.886719 C 87.214844 293.886719 87.566406 293.917969 87.914062 293.988281 C 88.261719 294.058594 88.601562 294.160156 88.929688 294.296875 C 89.257812 294.433594 89.566406 294.597656 89.863281 294.796875 C 90.160156 294.992188 90.433594 295.21875 90.683594 295.46875 C 90.933594 295.71875 91.15625 295.992188 91.355469 296.289062 C 91.550781 296.582031 91.71875 296.894531 91.855469 297.222656 C 91.992188 297.550781 92.09375 297.890625 92.164062 298.238281 C 92.230469 298.585938 92.265625 298.9375 92.265625 299.292969 C 92.265625 299.648438 92.230469 300 92.160156 300.347656 C 92.089844 300.695312 91.988281 301.035156 91.851562 301.359375 C 91.714844 301.6875 91.550781 302 91.351562 302.296875 C 91.152344 302.589844 90.929688 302.863281 90.675781 303.113281 L 77.222656 316.566406 C 76.71875 317.074219 76.132812 317.46875 75.472656 317.742188 C 74.8125 318.015625 74.121094 318.152344 73.40625 318.152344 Z M 73.40625 318.152344 " fill-opacity="1" fill-rule="nonzero"/><path fill="#f9ce49" d="M 102.84375 289.222656 C 102.289062 289.222656 101.75 289.140625 101.21875 288.972656 C 100.691406 288.808594 100.199219 288.566406 99.746094 288.246094 C 99.292969 287.929688 98.898438 287.550781 98.558594 287.113281 C 98.222656 286.675781 97.957031 286.195312 97.765625 285.675781 C 97.578125 285.152344 97.46875 284.617188 97.445312 284.0625 C 97.417969 283.511719 97.476562 282.964844 97.621094 282.429688 C 97.761719 281.894531 97.980469 281.394531 98.277344 280.925781 C 98.574219 280.457031 98.933594 280.046875 99.359375 279.6875 C 104.03125 275.757812 109.007812 272.261719 114.292969 269.203125 C 119.578125 266.144531 125.089844 263.570312 130.824219 261.476562 C 136.5625 259.382812 142.433594 257.800781 148.449219 256.738281 C 154.460938 255.671875 160.519531 255.140625 166.625 255.136719 L 243.46875 255.136719 C 243.824219 255.136719 244.175781 255.171875 244.523438 255.238281 C 244.871094 255.308594 245.207031 255.410156 245.535156 255.546875 C 245.863281 255.683594 246.175781 255.847656 246.46875 256.046875 C 246.765625 256.242188 247.039062 256.46875 247.289062 256.71875 C 247.539062 256.96875 247.765625 257.242188 247.960938 257.539062 C 248.15625 257.832031 248.324219 258.144531 248.460938 258.472656 C 248.597656 258.800781 248.699219 259.136719 248.769531 259.484375 C 248.835938 259.832031 248.871094 260.183594 248.871094 260.539062 C 248.871094 260.894531 248.835938 261.246094 248.769531 261.59375 C 248.699219 261.941406 248.597656 262.277344 248.460938 262.605469 C 248.324219 262.933594 248.15625 263.246094 247.960938 263.539062 C 247.765625 263.835938 247.539062 264.109375 247.289062 264.359375 C 247.039062 264.609375 246.765625 264.832031 246.46875 265.03125 C 246.175781 265.226562 245.863281 265.394531 245.535156 265.53125 C 245.207031 265.664062 244.871094 265.769531 244.523438 265.835938 C 244.175781 265.90625 243.824219 265.941406 243.46875 265.941406 L 166.625 265.941406 C 161.152344 265.945312 155.71875 266.421875 150.328125 267.378906 C 144.9375 268.332031 139.671875 269.746094 134.53125 271.625 C 129.386719 273.5 124.449219 275.8125 119.710938 278.554688 C 114.972656 281.296875 110.507812 284.429688 106.320312 287.953125 C 105.316406 288.800781 104.15625 289.222656 102.84375 289.222656 Z M 102.84375 289.222656 " fill-opacity="1" fill-rule="nonzero"/><path fill="#f9ce49" d="M 273.292969 265.941406 L 268.898438 265.941406 C 268.542969 265.941406 268.191406 265.90625 267.84375 265.835938 C 267.496094 265.769531 267.160156 265.664062 266.832031 265.53125 C 266.503906 265.394531 266.191406 265.226562 265.898438 265.03125 C 265.601562 264.832031 265.328125 264.609375 265.078125 264.359375 C 264.828125 264.109375 264.601562 263.835938 264.40625 263.539062 C 264.207031 263.246094 264.042969 262.933594 263.90625 262.605469 C 263.769531 262.277344 263.667969 261.941406 263.597656 261.59375 C 263.53125 261.246094 263.496094 260.894531 263.496094 260.539062 C 263.496094 260.183594 263.53125 259.832031 263.597656 259.484375 C 263.667969 259.136719 263.769531 258.800781 263.90625 258.472656 C 264.042969 258.144531 264.207031 257.832031 264.40625 257.539062 C 264.601562 257.242188 264.828125 256.96875 265.078125 256.71875 C 265.328125 256.46875 265.601562 256.242188 265.898438 256.046875 C 266.191406 255.847656 266.503906 255.683594 266.832031 255.546875 C 267.160156 255.410156 267.496094 255.308594 267.84375 255.238281 C 268.191406 255.171875 268.542969 255.136719 268.898438 255.136719 L 272.777344 255.136719 C 272.949219 255.117188 273.121094 255.109375 273.292969 255.113281 C 274.050781 255.113281 274.808594 255.074219 275.5625 255 C 276.320312 254.925781 277.070312 254.816406 277.816406 254.667969 C 278.558594 254.519531 279.296875 254.335938 280.023438 254.113281 C 280.75 253.894531 281.464844 253.636719 282.167969 253.347656 C 282.867188 253.058594 283.554688 252.734375 284.222656 252.375 C 284.894531 252.015625 285.542969 251.625 286.175781 251.203125 C 286.808594 250.78125 287.417969 250.332031 288.003906 249.847656 C 288.589844 249.367188 289.152344 248.859375 289.691406 248.320312 C 290.226562 247.785156 290.738281 247.222656 291.21875 246.636719 C 291.699219 246.046875 292.152344 245.4375 292.574219 244.808594 C 292.996094 244.175781 293.386719 243.527344 293.746094 242.855469 C 294.101562 242.1875 294.425781 241.5 294.71875 240.796875 C 295.007812 240.097656 295.265625 239.382812 295.484375 238.65625 C 295.707031 237.929688 295.890625 237.195312 296.039062 236.449219 C 296.1875 235.703125 296.296875 234.953125 296.375 234.199219 C 296.449219 233.441406 296.484375 232.683594 296.484375 231.925781 C 296.484375 231.164062 296.449219 230.40625 296.375 229.652344 C 296.300781 228.894531 296.1875 228.144531 296.039062 227.398438 C 295.890625 226.65625 295.707031 225.917969 295.488281 225.191406 C 295.265625 224.464844 295.011719 223.75 294.722656 223.050781 C 294.429688 222.347656 294.105469 221.660156 293.75 220.992188 C 293.390625 220.320312 293 219.671875 292.578125 219.039062 C 292.15625 218.410156 291.707031 217.800781 291.222656 217.210938 C 290.742188 216.625 290.234375 216.0625 289.695312 215.523438 C 289.160156 214.988281 288.597656 214.476562 288.011719 213.996094 C 287.421875 213.515625 286.8125 213.0625 286.183594 212.640625 C 285.550781 212.21875 284.902344 211.828125 284.230469 211.46875 C 283.5625 211.113281 282.875 210.789062 282.171875 210.496094 C 281.472656 210.207031 280.757812 209.949219 280.03125 209.730469 C 279.304688 209.507812 278.570312 209.324219 277.824219 209.175781 C 277.078125 209.027344 276.328125 208.917969 275.574219 208.839844 C 274.816406 208.765625 274.058594 208.730469 273.300781 208.730469 C 272.539062 208.730469 271.78125 208.765625 271.027344 208.839844 C 270.269531 208.914062 269.519531 209.027344 268.773438 209.175781 C 268.03125 209.320312 267.292969 209.507812 266.566406 209.726562 C 265.839844 209.945312 265.125 210.203125 264.425781 210.492188 C 263.722656 210.78125 263.035156 211.105469 262.367188 211.464844 C 261.695312 211.824219 261.046875 212.214844 260.414062 212.636719 C 259.78125 213.054688 259.171875 213.507812 258.585938 213.988281 C 258 214.472656 257.4375 214.980469 256.898438 215.519531 C 256.363281 216.054688 255.851562 216.617188 255.371094 217.203125 C 254.890625 217.789062 254.4375 218.398438 254.015625 219.03125 C 253.59375 219.664062 253.203125 220.3125 252.84375 220.984375 C 252.484375 221.652344 252.160156 222.339844 251.871094 223.039062 C 251.578125 223.742188 251.324219 224.457031 251.105469 225.183594 C 250.882812 225.910156 250.699219 226.644531 250.550781 227.390625 C 250.402344 228.136719 250.289062 228.886719 250.214844 229.640625 C 250.140625 230.398438 250.105469 231.15625 250.101562 231.914062 C 250.101562 232.269531 250.070312 232.621094 250 232.96875 C 249.929688 233.316406 249.828125 233.652344 249.691406 233.980469 C 249.554688 234.308594 249.390625 234.621094 249.191406 234.914062 C 248.996094 235.210938 248.773438 235.484375 248.519531 235.734375 C 248.269531 235.984375 247.996094 236.210938 247.703125 236.40625 C 247.40625 236.601562 247.097656 236.769531 246.769531 236.90625 C 246.441406 237.042969 246.101562 237.144531 245.753906 237.214844 C 245.40625 237.28125 245.054688 237.316406 244.699219 237.316406 C 244.347656 237.316406 243.996094 237.28125 243.648438 237.214844 C 243.296875 237.144531 242.960938 237.042969 242.632812 236.90625 C 242.304688 236.769531 241.996094 236.601562 241.699219 236.40625 C 241.402344 236.210938 241.132812 235.984375 240.878906 235.734375 C 240.628906 235.484375 240.40625 235.210938 240.207031 234.914062 C 240.011719 234.621094 239.84375 234.308594 239.710938 233.980469 C 239.574219 233.652344 239.472656 233.316406 239.402344 232.96875 C 239.332031 232.621094 239.296875 232.269531 239.296875 231.914062 C 239.296875 230.804688 239.351562 229.699219 239.460938 228.59375 C 239.570312 227.488281 239.730469 226.394531 239.949219 225.304688 C 240.164062 224.214844 240.433594 223.140625 240.753906 222.078125 C 241.074219 221.015625 241.445312 219.972656 241.871094 218.949219 C 242.292969 217.921875 242.765625 216.917969 243.285156 215.941406 C 243.808594 214.960938 244.375 214.007812 244.992188 213.085938 C 245.605469 212.164062 246.265625 211.269531 246.964844 210.410156 C 247.667969 209.550781 248.410156 208.730469 249.191406 207.941406 C 249.976562 207.15625 250.792969 206.410156 251.648438 205.703125 C 252.503906 204.996094 253.394531 204.332031 254.3125 203.714844 C 255.234375 203.09375 256.183594 202.523438 257.160156 201.996094 C 258.136719 201.46875 259.136719 200.992188 260.160156 200.5625 C 261.183594 200.132812 262.222656 199.757812 263.285156 199.429688 C 264.34375 199.101562 265.417969 198.828125 266.507812 198.605469 C 267.59375 198.386719 268.6875 198.21875 269.792969 198.101562 C 270.894531 197.988281 272.003906 197.929688 273.113281 197.921875 C 274.222656 197.917969 275.328125 197.964844 276.433594 198.066406 C 277.539062 198.171875 278.636719 198.328125 279.726562 198.535156 C 280.8125 198.746094 281.890625 199.007812 282.953125 199.324219 C 284.019531 199.640625 285.0625 200.003906 286.09375 200.421875 C 287.121094 200.839844 288.125 201.308594 289.105469 201.824219 C 290.089844 202.339844 291.042969 202.902344 291.972656 203.511719 C 292.898438 204.121094 293.792969 204.777344 294.65625 205.472656 C 295.519531 206.171875 296.347656 206.90625 297.136719 207.6875 C 297.929688 208.464844 298.679688 209.277344 299.390625 210.128906 C 300.101562 210.980469 300.769531 211.867188 301.394531 212.785156 C 302.019531 213.699219 302.597656 214.644531 303.128906 215.621094 C 303.660156 216.59375 304.144531 217.589844 304.578125 218.613281 C 305.011719 219.632812 305.394531 220.671875 305.726562 221.730469 C 306.058594 222.789062 306.339844 223.863281 306.566406 224.949219 C 306.796875 226.035156 306.96875 227.128906 307.089844 228.230469 C 307.210938 229.335938 307.277344 230.441406 307.289062 231.550781 C 307.300781 232.660156 307.257812 233.765625 307.160156 234.871094 C 307.066406 235.976562 306.914062 237.074219 306.710938 238.164062 C 306.507812 239.257812 306.25 240.335938 305.941406 241.398438 C 305.632812 242.464844 305.269531 243.511719 304.859375 244.542969 C 304.449219 245.574219 303.984375 246.582031 303.476562 247.566406 C 302.964844 248.550781 302.40625 249.507812 301.800781 250.4375 C 301.199219 251.371094 300.550781 252.269531 299.855469 253.136719 C 299.164062 254.003906 298.433594 254.832031 297.65625 255.628906 C 296.882812 256.421875 296.074219 257.179688 295.226562 257.894531 C 294.378906 258.609375 293.496094 259.285156 292.582031 259.914062 C 291.667969 260.542969 290.726562 261.125 289.757812 261.664062 C 288.785156 262.199219 287.792969 262.6875 286.773438 263.128906 C 285.753906 263.570312 284.714844 263.957031 283.660156 264.296875 C 282.601562 264.632812 281.53125 264.921875 280.449219 265.152344 C 279.363281 265.386719 278.269531 265.566406 277.167969 265.695312 C 276.066406 265.820312 274.960938 265.890625 273.851562 265.910156 C 273.664062 265.929688 273.476562 265.941406 273.292969 265.941406 Z M 273.292969 265.941406 " fill-opacity="1" fill-rule="nonzero"/><path fill="#f9ce49" d="M 273.292969 247.589844 C 272.773438 247.59375 272.257812 247.578125 271.742188 247.53125 C 271.226562 247.488281 270.710938 247.417969 270.203125 247.324219 C 269.695312 247.230469 269.191406 247.109375 268.695312 246.964844 C 268.199219 246.820312 267.710938 246.652344 267.230469 246.457031 C 266.75 246.265625 266.277344 246.050781 265.820312 245.808594 C 265.359375 245.570312 264.914062 245.308594 264.480469 245.023438 C 264.050781 244.742188 263.632812 244.4375 263.226562 244.109375 C 262.824219 243.785156 262.441406 243.441406 262.070312 243.078125 C 261.703125 242.714844 261.351562 242.332031 261.023438 241.933594 C 260.691406 241.535156 260.378906 241.125 260.089844 240.695312 C 259.800781 240.265625 259.53125 239.824219 259.289062 239.367188 C 259.042969 238.914062 258.816406 238.445312 258.617188 237.96875 C 258.417969 237.492188 258.242188 237.003906 258.089844 236.507812 C 257.941406 236.015625 257.8125 235.511719 257.710938 235.003906 C 257.609375 234.496094 257.53125 233.988281 257.480469 233.472656 C 257.429688 232.957031 257.40625 232.441406 257.40625 231.921875 C 257.40625 231.402344 257.429688 230.886719 257.480469 230.371094 C 257.53125 229.859375 257.609375 229.347656 257.710938 228.839844 C 257.8125 228.332031 257.941406 227.828125 258.089844 227.335938 C 258.242188 226.839844 258.417969 226.351562 258.617188 225.875 C 258.816406 225.398438 259.042969 224.929688 259.285156 224.476562 C 259.53125 224.019531 259.800781 223.578125 260.089844 223.148438 C 260.378906 222.71875 260.691406 222.308594 261.023438 221.910156 C 261.351562 221.511719 261.703125 221.128906 262.070312 220.765625 C 262.441406 220.402344 262.824219 220.058594 263.226562 219.734375 C 263.632812 219.40625 264.050781 219.101562 264.480469 218.820312 C 264.914062 218.535156 265.359375 218.273438 265.820312 218.035156 C 266.277344 217.792969 266.75 217.578125 267.230469 217.386719 C 267.710938 217.191406 268.199219 217.023438 268.695312 216.878906 C 269.191406 216.734375 269.695312 216.613281 270.203125 216.519531 C 270.710938 216.425781 271.226562 216.355469 271.742188 216.3125 C 272.257812 216.265625 272.773438 216.25 273.292969 216.257812 C 273.644531 216.257812 273.996094 216.289062 274.34375 216.359375 C 274.691406 216.429688 275.03125 216.53125 275.359375 216.667969 C 275.6875 216.804688 275.996094 216.96875 276.292969 217.167969 C 276.585938 217.363281 276.859375 217.585938 277.113281 217.839844 C 277.363281 218.089844 277.585938 218.363281 277.785156 218.65625 C 277.980469 218.953125 278.148438 219.261719 278.28125 219.589844 C 278.417969 219.917969 278.519531 220.257812 278.589844 220.605469 C 278.660156 220.953125 278.695312 221.304688 278.695312 221.660156 C 278.695312 222.011719 278.660156 222.363281 278.589844 222.710938 C 278.519531 223.058594 278.417969 223.398438 278.28125 223.726562 C 278.148438 224.054688 277.980469 224.363281 277.785156 224.660156 C 277.585938 224.953125 277.363281 225.226562 277.113281 225.480469 C 276.859375 225.730469 276.585938 225.953125 276.292969 226.152344 C 275.996094 226.347656 275.6875 226.515625 275.359375 226.648438 C 275.03125 226.785156 274.691406 226.886719 274.34375 226.957031 C 273.996094 227.027344 273.644531 227.0625 273.292969 227.0625 C 272.96875 227.054688 272.644531 227.078125 272.324219 227.132812 C 272.007812 227.191406 271.695312 227.277344 271.394531 227.394531 C 271.089844 227.515625 270.804688 227.660156 270.53125 227.835938 C 270.257812 228.011719 270.007812 228.214844 269.773438 228.441406 C 269.542969 228.667969 269.335938 228.914062 269.152344 229.183594 C 268.96875 229.449219 268.816406 229.734375 268.6875 230.03125 C 268.5625 230.332031 268.46875 230.640625 268.402344 230.957031 C 268.339844 231.277344 268.304688 231.597656 268.304688 231.921875 C 268.304688 232.246094 268.339844 232.566406 268.402344 232.886719 C 268.46875 233.203125 268.5625 233.511719 268.6875 233.8125 C 268.816406 234.109375 268.96875 234.394531 269.152344 234.660156 C 269.335938 234.929688 269.542969 235.175781 269.773438 235.402344 C 270.007812 235.628906 270.257812 235.832031 270.53125 236.007812 C 270.804688 236.183594 271.089844 236.328125 271.394531 236.449219 C 271.695312 236.566406 272.007812 236.65625 272.324219 236.710938 C 272.644531 236.765625 272.96875 236.789062 273.292969 236.78125 C 273.644531 236.78125 273.996094 236.816406 274.34375 236.886719 C 274.691406 236.957031 275.03125 237.058594 275.359375 237.195312 C 275.6875 237.328125 275.996094 237.496094 276.292969 237.691406 C 276.585938 237.890625 276.859375 238.113281 277.113281 238.363281 C 277.363281 238.617188 277.585938 238.890625 277.785156 239.183594 C 277.980469 239.480469 278.148438 239.789062 278.28125 240.117188 C 278.417969 240.445312 278.519531 240.785156 278.589844 241.132812 C 278.660156 241.480469 278.695312 241.832031 278.695312 242.183594 C 278.695312 242.539062 278.660156 242.890625 278.589844 243.238281 C 278.519531 243.585938 278.417969 243.925781 278.28125 244.253906 C 278.148438 244.582031 277.980469 244.890625 277.785156 245.1875 C 277.585938 245.480469 277.363281 245.753906 277.113281 246.003906 C 276.859375 246.257812 276.585938 246.480469 276.292969 246.675781 C 275.996094 246.875 275.6875 247.039062 275.359375 247.175781 C 275.03125 247.3125 274.691406 247.414062 274.34375 247.484375 C 273.996094 247.554688 273.644531 247.589844 273.292969 247.589844 Z M 273.292969 247.589844 " fill-opacity="1" fill-rule="nonzero"/><path fill="#f9ce49" d="M 106.304688 318.152344 C 105.769531 318.152344 105.246094 318.074219 104.734375 317.921875 C 104.222656 317.765625 103.746094 317.539062 103.300781 317.242188 C 102.855469 316.945312 102.464844 316.589844 102.125 316.175781 C 101.785156 315.765625 101.515625 315.3125 101.308594 314.816406 C 101.105469 314.324219 100.976562 313.808594 100.925781 313.277344 C 100.871094 312.746094 100.898438 312.21875 101.003906 311.695312 C 101.105469 311.171875 101.285156 310.671875 101.539062 310.199219 C 101.789062 309.730469 102.105469 309.304688 102.484375 308.925781 L 108.226562 303.183594 C 111.96875 299.433594 116.023438 296.066406 120.398438 293.082031 C 124.773438 290.097656 129.386719 287.546875 134.238281 285.429688 C 139.09375 283.316406 144.101562 281.671875 149.265625 280.496094 C 154.429688 279.324219 159.65625 278.644531 164.949219 278.457031 C 165.304688 278.441406 165.65625 278.464844 166.007812 278.519531 C 166.359375 278.578125 166.703125 278.667969 167.035156 278.789062 C 167.367188 278.914062 167.6875 279.066406 167.988281 279.253906 C 168.292969 279.441406 168.574219 279.652344 168.832031 279.894531 C 169.09375 280.136719 169.328125 280.402344 169.535156 280.691406 C 169.746094 280.976562 169.921875 281.285156 170.070312 281.605469 C 170.21875 281.929688 170.332031 282.265625 170.414062 282.609375 C 170.5 282.957031 170.546875 283.304688 170.558594 283.660156 C 170.570312 284.015625 170.550781 284.371094 170.492188 284.71875 C 170.4375 285.070312 170.347656 285.414062 170.222656 285.746094 C 170.097656 286.078125 169.941406 286.398438 169.757812 286.699219 C 169.570312 287 169.355469 287.28125 169.113281 287.542969 C 168.871094 287.804688 168.605469 288.035156 168.316406 288.246094 C 168.027344 288.453125 167.722656 288.628906 167.398438 288.777344 C 167.078125 288.925781 166.742188 289.039062 166.394531 289.121094 C 166.050781 289.203125 165.699219 289.25 165.34375 289.261719 C 160.730469 289.425781 156.167969 290.019531 151.664062 291.042969 C 147.160156 292.066406 142.792969 293.5 138.558594 295.347656 C 134.324219 297.191406 130.300781 299.417969 126.484375 302.019531 C 122.671875 304.625 119.132812 307.558594 115.871094 310.828125 L 110.128906 316.574219 C 109.621094 317.082031 109.035156 317.472656 108.375 317.746094 C 107.710938 318.019531 107.023438 318.152344 106.304688 318.152344 Z M 106.304688 318.152344 " fill-opacity="1" fill-rule="nonzero"/><g clip-path="url(#2c8ce95a26)"><path fill="#f9ce49" d="M 233.671875 337.632812 C 232.703125 337.628906 231.738281 337.582031 230.773438 337.484375 C 229.808594 337.390625 228.855469 337.246094 227.902344 337.054688 C 226.953125 336.867188 226.015625 336.628906 225.089844 336.347656 C 224.160156 336.066406 223.25 335.738281 222.355469 335.367188 C 221.460938 334.996094 220.585938 334.582031 219.734375 334.125 C 218.878906 333.667969 218.050781 333.167969 217.246094 332.632812 C 216.4375 332.09375 215.664062 331.515625 214.914062 330.902344 C 214.164062 330.285156 213.449219 329.636719 212.761719 328.953125 C 212.078125 328.265625 211.429688 327.550781 210.8125 326.800781 C 210.199219 326.050781 209.621094 325.273438 209.082031 324.46875 C 208.546875 323.664062 208.046875 322.835938 207.589844 321.980469 C 207.132812 321.128906 206.71875 320.253906 206.347656 319.359375 C 205.976562 318.464844 205.648438 317.550781 205.367188 316.625 C 205.085938 315.699219 204.847656 314.761719 204.660156 313.8125 C 204.46875 312.859375 204.324219 311.902344 204.230469 310.941406 C 204.132812 309.976562 204.085938 309.011719 204.082031 308.042969 C 204.082031 307.6875 204.117188 307.335938 204.1875 306.988281 C 204.253906 306.640625 204.359375 306.300781 204.492188 305.972656 C 204.628906 305.644531 204.796875 305.335938 204.992188 305.039062 C 205.191406 304.746094 205.414062 304.472656 205.664062 304.222656 C 205.914062 303.96875 206.1875 303.746094 206.484375 303.550781 C 206.777344 303.351562 207.089844 303.1875 207.417969 303.050781 C 207.746094 302.914062 208.082031 302.8125 208.429688 302.742188 C 208.777344 302.671875 209.128906 302.640625 209.484375 302.640625 C 209.839844 302.640625 210.191406 302.671875 210.539062 302.742188 C 210.886719 302.8125 211.226562 302.914062 211.550781 303.050781 C 211.878906 303.1875 212.191406 303.351562 212.488281 303.550781 C 212.78125 303.746094 213.054688 303.96875 213.304688 304.222656 C 213.554688 304.472656 213.78125 304.746094 213.976562 305.039062 C 214.175781 305.335938 214.339844 305.644531 214.476562 305.972656 C 214.613281 306.300781 214.714844 306.640625 214.785156 306.988281 C 214.851562 307.335938 214.886719 307.6875 214.886719 308.042969 C 214.886719 308.65625 214.917969 309.269531 214.976562 309.882812 C 215.039062 310.496094 215.128906 311.101562 215.25 311.707031 C 215.367188 312.308594 215.515625 312.90625 215.695312 313.496094 C 215.875 314.082031 216.082031 314.664062 216.316406 315.230469 C 216.550781 315.800781 216.816406 316.355469 217.105469 316.898438 C 217.394531 317.441406 217.710938 317.96875 218.050781 318.480469 C 218.394531 318.992188 218.761719 319.484375 219.148438 319.960938 C 219.539062 320.433594 219.953125 320.890625 220.386719 321.324219 C 220.824219 321.761719 221.277344 322.175781 221.753906 322.5625 C 222.230469 322.953125 222.722656 323.320312 223.234375 323.664062 C 223.746094 324.003906 224.273438 324.320312 224.816406 324.609375 C 225.359375 324.902344 225.914062 325.164062 226.480469 325.398438 C 227.050781 325.632812 227.628906 325.839844 228.21875 326.019531 C 228.808594 326.199219 229.402344 326.347656 230.007812 326.46875 C 230.609375 326.589844 231.21875 326.679688 231.828125 326.738281 C 232.441406 326.800781 233.054688 326.828125 233.671875 326.828125 C 234.285156 326.828125 234.898438 326.800781 235.511719 326.738281 C 236.125 326.679688 236.734375 326.589844 237.335938 326.46875 C 237.941406 326.347656 238.535156 326.199219 239.125 326.023438 C 239.714844 325.84375 240.292969 325.636719 240.859375 325.402344 C 241.429688 325.164062 241.984375 324.902344 242.527344 324.613281 C 243.070312 324.324219 243.597656 324.007812 244.109375 323.664062 C 244.621094 323.324219 245.113281 322.957031 245.589844 322.566406 C 246.066406 322.175781 246.519531 321.765625 246.957031 321.328125 C 247.390625 320.894531 247.804688 320.4375 248.195312 319.964844 C 248.585938 319.488281 248.949219 318.992188 249.292969 318.480469 C 249.632812 317.972656 249.949219 317.445312 250.238281 316.902344 C 250.53125 316.359375 250.792969 315.804688 251.027344 315.234375 C 251.265625 314.667969 251.472656 314.085938 251.648438 313.5 C 251.828125 312.910156 251.976562 312.3125 252.097656 311.710938 C 252.21875 311.105469 252.308594 310.5 252.367188 309.886719 C 252.429688 309.273438 252.457031 308.660156 252.457031 308.046875 C 252.457031 307.429688 252.429688 306.816406 252.367188 306.203125 C 252.308594 305.589844 252.21875 304.984375 252.097656 304.378906 C 251.976562 303.777344 251.828125 303.179688 251.648438 302.59375 C 251.472656 302.003906 251.265625 301.425781 251.027344 300.855469 C 250.792969 300.289062 250.53125 299.730469 250.242188 299.191406 C 249.949219 298.648438 249.636719 298.121094 249.292969 297.609375 C 248.953125 297.097656 248.585938 296.601562 248.195312 296.128906 C 247.804688 295.652344 247.390625 295.195312 246.957031 294.761719 C 246.523438 294.328125 246.066406 293.914062 245.589844 293.523438 C 245.117188 293.132812 244.621094 292.765625 244.109375 292.425781 C 243.597656 292.082031 243.070312 291.765625 242.527344 291.476562 C 241.988281 291.1875 241.429688 290.925781 240.863281 290.6875 C 240.292969 290.453125 239.714844 290.246094 239.125 290.066406 C 238.539062 289.890625 237.941406 289.738281 237.339844 289.621094 C 236.734375 289.5 236.128906 289.410156 235.515625 289.347656 C 234.902344 289.289062 234.289062 289.257812 233.671875 289.257812 L 187.652344 289.203125 C 187.296875 289.203125 186.945312 289.167969 186.597656 289.097656 C 186.25 289.03125 185.914062 288.929688 185.585938 288.792969 C 185.257812 288.65625 184.945312 288.488281 184.652344 288.292969 C 184.355469 288.09375 184.082031 287.871094 183.832031 287.621094 C 183.582031 287.371094 183.359375 287.097656 183.160156 286.800781 C 182.964844 286.507812 182.796875 286.195312 182.660156 285.867188 C 182.527344 285.539062 182.421875 285.203125 182.355469 284.855469 C 182.285156 284.507812 182.25 284.15625 182.25 283.800781 C 182.25 283.445312 182.285156 283.09375 182.355469 282.746094 C 182.421875 282.398438 182.527344 282.0625 182.660156 281.734375 C 182.796875 281.40625 182.964844 281.09375 183.160156 280.800781 C 183.359375 280.503906 183.582031 280.230469 183.832031 279.980469 C 184.082031 279.730469 184.355469 279.503906 184.652344 279.308594 C 184.945312 279.113281 185.257812 278.945312 185.585938 278.808594 C 185.914062 278.671875 186.25 278.570312 186.597656 278.5 C 186.945312 278.433594 187.296875 278.398438 187.652344 278.398438 L 233.671875 278.453125 C 234.636719 278.464844 235.597656 278.519531 236.554688 278.625 C 237.511719 278.726562 238.460938 278.878906 239.402344 279.074219 C 240.34375 279.269531 241.277344 279.511719 242.195312 279.796875 C 243.113281 280.085938 244.015625 280.417969 244.902344 280.792969 C 245.789062 281.167969 246.65625 281.585938 247.503906 282.046875 C 248.347656 282.503906 249.171875 283.003906 249.96875 283.542969 C 250.765625 284.085938 251.53125 284.664062 252.273438 285.277344 C 253.015625 285.890625 253.722656 286.542969 254.402344 287.226562 C 255.078125 287.910156 255.71875 288.625 256.328125 289.375 C 256.933594 290.121094 257.503906 290.894531 258.035156 291.699219 C 258.570312 292.5 259.058594 293.328125 259.511719 294.175781 C 259.960938 295.027344 260.371094 295.898438 260.738281 296.789062 C 261.105469 297.679688 261.425781 298.585938 261.703125 299.507812 C 261.980469 300.429688 262.214844 301.363281 262.398438 302.308594 C 262.585938 303.25 262.726562 304.203125 262.820312 305.160156 C 262.914062 306.121094 262.960938 307.078125 262.960938 308.042969 C 262.960938 309.003906 262.914062 309.964844 262.820312 310.925781 C 262.726562 311.882812 262.585938 312.835938 262.398438 313.777344 C 262.214844 314.722656 261.980469 315.65625 261.703125 316.578125 C 261.425781 317.5 261.105469 318.40625 260.738281 319.296875 C 260.371094 320.1875 259.960938 321.058594 259.511719 321.910156 C 259.058594 322.757812 258.570312 323.585938 258.035156 324.386719 C 257.503906 325.191406 256.933594 325.964844 256.328125 326.710938 C 255.71875 327.460938 255.078125 328.175781 254.402344 328.859375 C 253.722656 329.542969 253.015625 330.191406 252.273438 330.808594 C 251.53125 331.421875 250.765625 332 249.96875 332.539062 C 249.171875 333.082031 248.347656 333.582031 247.503906 334.039062 C 246.65625 334.5 245.789062 334.917969 244.902344 335.292969 C 244.015625 335.667969 243.113281 336 242.195312 336.285156 C 241.277344 336.574219 240.34375 336.816406 239.402344 337.011719 C 238.460938 337.207031 237.511719 337.359375 236.554688 337.460938 C 235.597656 337.566406 234.636719 337.621094 233.671875 337.632812 Z M 233.671875 337.632812 " fill-opacity="1" fill-rule="nonzero"/></g><path fill="#f9ce49" d="M 233.671875 321.800781 C 232.769531 321.800781 231.875 321.710938 230.988281 321.535156 C 230.101562 321.359375 229.242188 321.097656 228.40625 320.753906 C 227.574219 320.40625 226.78125 319.984375 226.027344 319.480469 C 225.277344 318.980469 224.582031 318.410156 223.945312 317.769531 C 223.304688 317.132812 222.734375 316.4375 222.234375 315.6875 C 221.730469 314.933594 221.308594 314.140625 220.960938 313.308594 C 220.617188 312.472656 220.355469 311.613281 220.179688 310.726562 C 220 309.839844 219.914062 308.945312 219.914062 308.042969 C 219.914062 307.136719 220 306.242188 220.179688 305.355469 C 220.355469 304.472656 220.617188 303.609375 220.960938 302.777344 C 221.308594 301.941406 221.730469 301.148438 222.234375 300.398438 C 222.734375 299.644531 223.304688 298.949219 223.945312 298.3125 C 224.582031 297.671875 225.277344 297.101562 226.027344 296.601562 C 226.78125 296.097656 227.574219 295.675781 228.40625 295.328125 C 229.242188 294.984375 230.101562 294.722656 230.988281 294.546875 C 231.875 294.371094 232.769531 294.28125 233.671875 294.28125 C 234.027344 294.28125 234.378906 294.316406 234.726562 294.386719 C 235.074219 294.453125 235.414062 294.558594 235.742188 294.691406 C 236.070312 294.828125 236.378906 294.996094 236.675781 295.191406 C 236.96875 295.390625 237.242188 295.613281 237.492188 295.863281 C 237.746094 296.113281 237.96875 296.386719 238.164062 296.683594 C 238.363281 296.976562 238.527344 297.289062 238.664062 297.617188 C 238.800781 297.945312 238.902344 298.28125 238.972656 298.628906 C 239.042969 298.976562 239.074219 299.328125 239.074219 299.683594 C 239.074219 300.039062 239.042969 300.390625 238.972656 300.738281 C 238.902344 301.085938 238.800781 301.425781 238.664062 301.75 C 238.527344 302.078125 238.363281 302.390625 238.164062 302.6875 C 237.96875 302.980469 237.746094 303.253906 237.492188 303.503906 C 237.242188 303.753906 236.96875 303.980469 236.675781 304.175781 C 236.378906 304.375 236.070312 304.539062 235.742188 304.675781 C 235.414062 304.8125 235.074219 304.914062 234.726562 304.984375 C 234.378906 305.050781 234.027344 305.085938 233.671875 305.085938 C 233.28125 305.085938 232.90625 305.160156 232.542969 305.3125 C 232.179688 305.460938 231.859375 305.675781 231.585938 305.953125 C 231.308594 306.230469 231.09375 306.546875 230.945312 306.910156 C 230.792969 307.273438 230.71875 307.648438 230.71875 308.042969 C 230.71875 308.433594 230.792969 308.808594 230.945312 309.171875 C 231.09375 309.535156 231.308594 309.851562 231.585938 310.128906 C 231.859375 310.40625 232.179688 310.621094 232.542969 310.769531 C 232.90625 310.921875 233.28125 310.996094 233.671875 310.996094 C 234.027344 310.996094 234.378906 311.03125 234.726562 311.097656 C 235.074219 311.167969 235.414062 311.269531 235.742188 311.40625 C 236.070312 311.542969 236.378906 311.710938 236.675781 311.90625 C 236.96875 312.101562 237.242188 312.328125 237.492188 312.578125 C 237.746094 312.828125 237.96875 313.101562 238.164062 313.398438 C 238.363281 313.691406 238.527344 314.003906 238.664062 314.332031 C 238.800781 314.660156 238.902344 314.996094 238.972656 315.34375 C 239.042969 315.691406 239.074219 316.042969 239.074219 316.398438 C 239.074219 316.753906 239.042969 317.105469 238.972656 317.453125 C 238.902344 317.800781 238.800781 318.136719 238.664062 318.464844 C 238.527344 318.792969 238.363281 319.105469 238.164062 319.398438 C 237.96875 319.695312 237.746094 319.96875 237.492188 320.21875 C 237.242188 320.46875 236.96875 320.691406 236.675781 320.890625 C 236.378906 321.085938 236.070312 321.253906 235.742188 321.390625 C 235.414062 321.523438 235.074219 321.628906 234.726562 321.695312 C 234.378906 321.765625 234.027344 321.800781 233.671875 321.800781 Z M 233.671875 321.800781 " fill-opacity="1" fill-rule="nonzero"/></svg>